<svg xmlns="http://www.w3.org/2000/svg" xmlns:xlink="http://www.w3.org/1999/xlink" width="500" zoomAndPan="magnify" viewBox="0 0 375 374.999991" height="500" preserveAspectRatio="xMidYMid meet" version="1.0"><defs><g/><clipPath id="731c946e0d"><path d="M 130.984375 158.566406 L 374.90625 158.566406 L 374.90625 369.296875 L 130.984375 369.296875 Z M 130.984375 158.566406 " clip-rule="nonzero"/></clipPath><clipPath id="dcddf17201"><path d="M 0.351562 3.085938 L 246.75 3.085938 L 246.75 203.230469 L 0.351562 203.230469 Z M 0.351562 3.085938 " clip-rule="nonzero"/></clipPath></defs><g clip-path="url(#731c946e0d)"><path fill="#231f20" d="M 234.554688 208.890625 C 237.019531 203.015625 239.277344 198.121094 239.59375 192.359375 C 243.769531 175.890625 234.832031 164.492188 223.085938 160.410156 C 209.691406 155.75 198.800781 160.164062 193.980469 170.964844 C 172.476562 170.117188 170.039062 175.503906 187.4375 185.480469 C 185.84375 194.820312 185.84375 202.097656 187.4375 207.308594 C 185.871094 208.222656 183.683594 207.160156 180.875 204.128906 C 182.304688 210.738281 185.21875 214.375 189.621094 215.042969 C 191.03125 219.019531 192.753906 221.597656 194.789062 222.777344 C 192.308594 225.136719 190.785156 227.78125 190.21875 230.71875 C 179.390625 239.484375 169.0625 239.785156 155.902344 233.929688 C 157.050781 223.859375 153.664062 219.273438 149.335938 219.027344 C 148.757812 215.800781 146.65625 213.460938 143 212.460938 C 138.277344 211.277344 136.527344 213.535156 137.535156 217.617188 C 134.1875 218.828125 132.261719 221.023438 133.226562 224.972656 C 130.699219 227.132812 130.359375 230.578125 131.957031 233.574219 C 130.277344 238.257812 132.621094 241.339844 137.882812 241.949219 C 139.519531 245.554688 141.917969 248.054688 143.460938 248.550781 C 142.671875 252.320312 142.480469 254.839844 142.882812 256.117188 C 159.171875 273.3125 176.261719 278.738281 196.945312 269.867188 C 196.734375 269.523438 206.652344 285.511719 211.675781 290.277344 C 194.535156 299.605469 180.476562 312.265625 168.078125 332.003906 L 170.527344 337.230469 C 165.355469 345.222656 146.808594 329.996094 144.097656 333.679688 C 137.671875 341.992188 151.957031 361.207031 167.058594 361.894531 L 167.839844 365.097656 C 169.824219 367.371094 174.980469 368.445312 181.152344 369.296875 C 183.1875 368.570312 187.625 363.585938 192.089844 354.667969 C 209.144531 334.59375 234.453125 324.160156 253.042969 326.144531 C 281.769531 344.984375 314.242188 349.746094 350.449219 340.429688 L 351.246094 334.671875 C 363.773438 331.492188 366.894531 349.882812 373.550781 347.863281 C 376.890625 339.683594 373.769531 329.34375 367.460938 320.976562 L 368.113281 317.96875 C 368.367188 316.417969 366.785156 313.851562 363.378906 310.269531 C 355.949219 309.71875 350.847656 311.4375 348.066406 315.429688 C 321.835938 321.097656 305.398438 316.207031 298.761719 300.746094 C 290.082031 295.171875 283.261719 279.832031 278.292969 254.722656 C 281.882812 257.699219 288.449219 263.039062 292.542969 268.738281 C 302.480469 267.820312 308.183594 265.773438 311.117188 263.644531 C 304.742188 233.796875 283.566406 216.914062 249.445312 211.164062 C 244.53125 207.558594 239.703125 207.796875 234.554688 208.890625 " fill-opacity="1" fill-rule="evenodd"/></g><path fill="#2853a9" d="M 346.816406 320.046875 C 348.847656 328.644531 348.847656 334.847656 346.816406 338.65625 C 329.582031 342.316406 312.8125 342.316406 296.511719 338.65625 L 334.898438 320.265625 L 346.816406 320.046875 " fill-opacity="1" fill-rule="evenodd"/><path fill="#231f20" d="M 309.121094 263.152344 C 310.789062 266.046875 313.351562 274.144531 315.386719 281.707031 C 316.332031 288.53125 314.664062 291.261719 312.992188 293.960938 C 311.765625 295.605469 310.375 295.929688 308.828125 294.929688 C 307.097656 297.113281 305.222656 297.394531 303.207031 295.777344 C 300.820312 297.742188 298.042969 298.0625 294.875 296.742188 C 293.046875 299.148438 291.253906 299.230469 289.5 296.988281 C 286.199219 292.8125 284.578125 288.304688 286.234375 282.953125 C 287.328125 280.347656 287.769531 278.058594 291.730469 271.984375 C 292.742188 270.3125 292.414062 268.242188 290.75 265.769531 L 309.121094 263.152344 " fill-opacity="1" fill-rule="evenodd"/><path fill="#e61a2f" d="M 222.285156 181.613281 C 216.625 177.707031 207.71875 174.851562 195.566406 173.050781 C 186.914062 172.539062 181.171875 173.257812 178.34375 175.203125 C 184.308594 174.984375 209.203125 190.355469 222.285156 181.613281 " fill-opacity="1" fill-rule="evenodd"/><path fill="#eabc6b" d="M 190.503906 181.316406 C 186.429688 201.027344 187.519531 213.722656 195.355469 220.953125 C 197.535156 225.085938 202.609375 223.820312 206.972656 221.726562 C 204.933594 224.550781 202.269531 225.589844 198.980469 224.84375 C 205.804688 231.515625 213.101562 231.582031 220.875 225.039062 C 222.167969 221.152344 224.351562 217.109375 227.414062 212.90625 L 226.738281 209.980469 C 235.699219 213.003906 239.472656 182.8125 228.867188 200.699219 L 225.160156 200.070312 C 226.191406 192.019531 226.066406 187.160156 222.0625 184.554688 C 211.191406 188.488281 200.929688 186.792969 190.503906 181.316406 " fill-opacity="1" fill-rule="evenodd"/><path fill="#ffffff" d="M 225.960938 184.722656 C 227.820312 189.324219 227.761719 194.140625 226.484375 199.125 L 228.5 199.511719 C 231.714844 192.703125 234.628906 191.964844 236.667969 197.53125 C 237.242188 196.296875 237.46875 194.738281 237.34375 192.867188 C 235.152344 189.792969 231.359375 187.078125 225.960938 184.722656 " fill-opacity="1" fill-rule="evenodd"/><path fill="#e61a2f" d="M 236.957031 189.292969 C 226.441406 180.414062 214.722656 172.804688 197.867188 171.117188 C 201.089844 163.347656 208.722656 159.292969 221.660156 162.707031 C 234.554688 166.113281 239.007812 177.738281 236.957031 189.292969 " fill-opacity="1" fill-rule="evenodd"/><path fill="#e61a2f" d="M 190.019531 235.15625 C 189.214844 246.730469 191.171875 257.109375 195.890625 266.289062 C 175.84375 273.097656 159.753906 269.3125 147.628906 254.933594 C 152.097656 251.746094 156.203125 245.429688 156.503906 237.878906 C 165.511719 241.632812 178.515625 242.984375 190.019531 235.15625 " fill-opacity="1" fill-rule="evenodd"/><path fill="#375ab1" d="M 195.707031 224.535156 C 187.023438 241.554688 193.382812 263.046875 214.792969 288.996094 C 227.066406 284.863281 250.003906 280.195312 283.863281 286.691406 C 282.238281 282.066406 279.71875 273.382812 276.453125 264.089844 C 256.765625 273.890625 236.722656 263.867188 233.328125 241.015625 C 232.476562 231.613281 234.777344 220.816406 243.785156 212.078125 C 239.277344 210.152344 235.242188 210.335938 231.675781 212.632812 C 223.136719 222.300781 218.972656 232.554688 219.195312 243.398438 L 201.210938 243.761719 C 198.816406 239.535156 198.265625 234.648438 199.5625 229.113281 C 198.109375 228.667969 196.824219 227.140625 195.707031 224.535156 " fill-opacity="1" fill-rule="evenodd"/><path fill="#375ab1" d="M 262.78125 287.257812 C 221.0625 283.167969 190.570312 299.8125 171.65625 332.71875 C 178.261719 343.351562 184.621094 349.300781 190.738281 350.566406 C 207.8125 330.640625 232.378906 320.410156 264.433594 319.875 C 295.445312 298.1875 289.101562 300.351562 283.773438 290.363281 C 278.199219 289.121094 271.195312 288.082031 262.78125 287.257812 " fill-opacity="1" fill-rule="evenodd"/><path fill="#e61a2f" d="M 244.207031 213.890625 C 216.945312 250.242188 260.261719 279.039062 273.210938 254.625 C 271.488281 250.199219 265.898438 246.773438 256.4375 244.347656 C 267.191406 243.023438 278.84375 250.003906 292.902344 264.148438 C 297.617188 264.769531 303.382812 263.964844 308.589844 261.957031 C 298.648438 232.808594 276.648438 216.863281 244.207031 213.890625 " fill-opacity="1" fill-rule="evenodd"/><path fill="#eabc6b" d="M 153.449219 237.742188 C 154.582031 230.761719 154.082031 225.496094 151.9375 221.953125 C 151.097656 220.910156 149.921875 220.445312 148.410156 220.558594 C 145.519531 222.84375 143.71875 224.925781 143.015625 226.800781 C 143.171875 229.511719 145.292969 229.925781 149.386719 228.042969 C 148.882812 229.320312 147.609375 230.265625 145.570312 230.878906 C 146.582031 233.34375 146.265625 234.84375 144.613281 235.375 C 144.507812 239.125 143.085938 241.03125 140.351562 241.085938 C 141.308594 244.066406 143.847656 246.714844 147.964844 249.039062 C 150.625 248.117188 152.453125 244.351562 153.449219 237.742188 " fill-opacity="1" fill-rule="evenodd"/><path fill="#231f20" d="M 207.523438 194.320312 C 207.523438 193.363281 207.933594 192.582031 208.4375 192.582031 C 208.941406 192.582031 209.351562 193.363281 209.351562 194.320312 C 209.351562 195.28125 208.941406 196.058594 208.4375 196.058594 C 207.933594 196.058594 207.523438 195.28125 207.523438 194.320312 " fill-opacity="1" fill-rule="nonzero"/><path fill="#231f20" d="M 224.0625 214.277344 C 221.84375 220.945312 218.632812 223.660156 214.425781 222.421875 C 217.3125 221.921875 220.523438 219.207031 224.0625 214.277344 " fill-opacity="1" fill-rule="evenodd"/><path fill="#231f20" d="M 203.28125 213.105469 C 201.667969 215.710938 198.359375 215.382812 197.03125 212.546875 C 198.421875 210.328125 200.503906 210.511719 203.28125 213.105469 " fill-opacity="1" fill-rule="evenodd"/><path fill="#231f20" d="M 203.589844 216.085938 C 200.851562 218.792969 198.648438 218.664062 196.976562 215.691406 C 198.730469 217.089844 200.933594 217.222656 203.589844 216.085938 " fill-opacity="1" fill-rule="evenodd"/><path fill="#eabc6b" d="M 142.128906 229.019531 C 144.550781 231.230469 145.023438 232.96875 143.550781 234.222656 C 139.8125 233.503906 137.039062 233.503906 135.226562 233.160156 C 132.40625 232.378906 132.207031 229.675781 134.628906 226.117188 C 136.722656 227.777344 139.226562 228.742188 142.128906 229.019531 Z M 137.625 219.851562 C 139.195312 221.636719 140.902344 223.046875 142.75 224.078125 C 141.621094 225.136719 141.265625 226.371094 141.6875 227.777344 C 134.40625 225.703125 133.054688 223.058594 137.625 219.851562 Z M 147.839844 218.898438 C 146.183594 219.753906 145.011719 221.496094 143.726562 222.925781 C 139.671875 220.199219 137.8125 217.527344 139.042969 214.558594 C 142.304688 212.253906 146.003906 215.027344 147.839844 218.898438 Z M 142.484375 235.550781 C 143.433594 237.589844 142.578125 238.910156 139.910156 239.515625 C 134.152344 239.796875 132.09375 237.882812 133.742188 233.78125 L 142.484375 235.550781 " fill-opacity="1" fill-rule="nonzero"/><path fill="#e61a2f" d="M 218.476562 231.296875 C 211.015625 233.890625 205.390625 233.664062 201.59375 230.621094 C 200.789062 235.152344 201.023438 238.789062 202.300781 241.523438 C 206.9375 241.421875 211.992188 241.308594 217.460938 241.183594 L 218.476562 231.296875 " fill-opacity="1" fill-rule="evenodd"/><path fill="#ffffff" d="M 148.488281 336.628906 C 143.871094 339.332031 146.179688 344.359375 155.410156 351.71875 C 149.195312 345.710938 146.890625 340.679688 148.488281 336.628906 " fill-opacity="1" fill-rule="evenodd"/><path fill="#231f20" d="M 228.472656 187.863281 L 232.015625 190.460938 L 228.472656 189.992188 Z M 228.472656 187.863281 " fill-opacity="1" fill-rule="evenodd"/><path fill="#231f20" d="M 229.132812 190.648438 L 232.675781 192.625 L 229.132812 192.90625 Z M 229.132812 190.648438 " fill-opacity="1" fill-rule="evenodd"/><path fill="#231f20" d="M 327.101562 298.644531 L 263.726562 299.175781 L 258.742188 311.792969 L 259.0625 340.148438 L 280.136719 347.964844 L 343.152344 338.222656 L 343.972656 311.257812 L 340.066406 300.5625 L 327.101562 298.644531 " fill-opacity="1" fill-rule="evenodd"/><path fill="#af1b2d" d="M 264.441406 301.535156 L 260.722656 312.714844 L 260.898438 338.671875 L 279.292969 344.808594 L 279.089844 316.019531 L 276.117188 304.257812 L 264.441406 301.535156 " fill-opacity="1" fill-rule="evenodd"/><path fill="#e61a2f" d="M 278.425781 304.042969 L 281.753906 316.550781 L 281.589844 344.578125 L 341.089844 336.375 L 342.164062 312.007812 L 338.460938 301.949219 L 278.425781 304.042969 " fill-opacity="1" fill-rule="evenodd"/><path fill="#eabc6b" d="M 294.378906 267.324219 C 295.636719 270.050781 294.578125 272.871094 293.199219 274.3125 C 290.898438 276.320312 289.058594 279.5625 287.6875 284.039062 L 293.808594 283.71875 C 294.757812 286.671875 295.222656 290.378906 295.199219 294.839844 C 297.757812 294.832031 299.3125 291.691406 299.863281 285.425781 C 301.03125 287 301.03125 289.960938 299.863281 294.308594 C 302.210938 294.59375 303.90625 291.5625 304.957031 285.210938 C 306.808594 288.4375 306.808594 291.089844 304.957031 293.175781 C 307.625 293.839844 309.289062 291.148438 309.941406 285.105469 C 311.105469 288.34375 310.75 291.035156 308.871094 293.175781 C 312.003906 292.503906 313.453125 289.042969 313.214844 282.800781 C 311.875 276.640625 309.890625 271.023438 307.265625 265.953125 C 302.285156 267.085938 297.992188 267.542969 294.378906 267.324219 " fill-opacity="1" fill-rule="evenodd"/><path fill="#e61a2f" d="M 270.703125 300.5625 L 276.976562 302.472656 L 290.429688 302.273438 L 285.871094 300.5625 L 270.703125 300.5625 " fill-opacity="1" fill-rule="evenodd"/><path fill="#e61a2f" d="M 327.53125 299.710938 L 320.660156 299.710938 L 322.757812 301.097656 L 334.011719 300.777344 L 327.53125 299.710938 " fill-opacity="1" fill-rule="evenodd"/><path fill="#231f20" d="M 342.914062 311.6875 L 280.992188 316.984375 L 259.769531 312.007812 L 259.875 313.351562 L 280.992188 318.328125 L 343.125 313.246094 L 342.914062 311.6875 " fill-opacity="1" fill-rule="evenodd"/><path fill="#231f20" d="M 318.523438 311.046875 L 318.628906 321.742188 L 311.019531 322.285156 L 311.011719 311.152344 L 318.523438 311.046875 " fill-opacity="1" fill-rule="evenodd"/><path fill="#231f20" d="M 314.390625 287.667969 L 317.730469 288.707031 L 322.988281 301.421875 L 317.773438 300.03125 L 314.289062 292.386719 L 313.109375 292.320312 L 314.390625 287.667969 " fill-opacity="1" fill-rule="evenodd"/><path fill="#231f20" d="M 290.035156 285.351562 C 284.851562 285.253906 281.4375 284.699219 280.976562 285.15625 L 275.191406 300.5625 L 282.910156 303.058594 L 288.875 290.558594 L 293.199219 290.558594 L 290.035156 285.351562 " fill-opacity="1" fill-rule="evenodd"/><path fill="#918f8f" d="M 290.324219 286.601562 L 282.8125 286.707031 L 278.039062 299.816406 L 282.070312 301.3125 L 286.941406 289.546875 L 291.820312 289.332031 L 290.324219 286.601562 " fill-opacity="1" fill-rule="evenodd"/><path fill="#231f20" d="M 148.691406 229.140625 C 146.859375 233.679688 146.421875 236.992188 147.386719 239.066406 C 144.761719 236.21875 144.566406 233.339844 146.804688 230.425781 L 148.691406 229.140625 " fill-opacity="1" fill-rule="evenodd"/><path fill="#918f8f" d="M 313.050781 312.828125 L 312.824219 321.089844 L 316.464844 320.523438 L 315.089844 319.152344 L 315.089844 312.828125 L 313.050781 312.828125 " fill-opacity="1" fill-rule="evenodd"/><path fill="#ffffff" d="M 370.421875 332.4375 C 373.320312 338.933594 373.621094 342.523438 371.324219 343.203125 C 372.238281 342.542969 371.9375 338.957031 370.421875 332.4375 " fill-opacity="1" fill-rule="evenodd"/><path fill="#e69434" d="M 190.503906 181.316406 C 200.929688 186.792969 211.191406 188.488281 222.0625 184.554688 C 223.195312 185.292969 224.019531 186.210938 224.59375 187.332031 C 214.078125 190.828125 203.375 188.949219 193.257812 183.632812 C 189.183594 203.34375 191.015625 216.167969 198.847656 223.394531 L 198.953125 223.585938 C 197.464844 223.335938 196.195312 222.546875 195.355469 220.953125 C 187.519531 213.722656 186.429688 201.027344 190.503906 181.316406 Z M 203.570312 228.300781 C 202.019531 227.46875 200.488281 226.316406 198.980469 224.84375 C 199.386719 224.9375 199.785156 225.003906 200.171875 225.039062 C 202.710938 227.082031 206.832031 225.914062 210.46875 224.167969 C 208.425781 226.992188 205.761719 228.03125 202.476562 227.285156 C 202.839844 227.640625 203.207031 227.980469 203.570312 228.300781 " fill-opacity="1" fill-rule="evenodd"/><path fill="#231f20" d="M 198.269531 189.710938 C 197.410156 186.195312 195.378906 185.15625 192.171875 186.59375 C 194.675781 186.773438 196.707031 187.808594 198.269531 189.710938 " fill-opacity="1" fill-rule="evenodd"/><path fill="#231f20" d="M 198.746094 192.246094 C 188.792969 203.464844 192.558594 211.367188 204.8125 203.8125 C 195.054688 206.824219 193.324219 202.179688 198.746094 192.246094 " fill-opacity="1" fill-rule="evenodd"/><path fill="#231f20" d="M 194.121094 204.75 C 189.628906 203.367188 187.71875 210.625 181.09375 204.363281 C 184.140625 219.277344 190.761719 221.195312 199.554688 211.453125 C 207.636719 219.90625 215.175781 218.019531 222.453125 209.070312 C 212.910156 213.757812 208.792969 201.832031 202.707031 204.734375 C 198.726562 205.382812 195.917969 205.65625 194.121094 204.75 " fill-opacity="1" fill-rule="evenodd"/><path fill="#ffffff" d="M 202.476562 205.714844 C 198.570312 207.582031 196.210938 208.164062 193.605469 206.445312 C 189.054688 206.0625 187.867188 210.664062 183.171875 207.417969 C 185.796875 216.210938 190.746094 217.667969 198.453125 210.46875 C 198.003906 209.988281 197.875 209.144531 198.0625 207.933594 C 204.734375 216.1875 212.671875 217.152344 220.648438 210.773438 C 209.914062 214.925781 208.066406 203.417969 202.476562 205.714844 " fill-opacity="1" fill-rule="evenodd"/><path fill="#231f20" d="M 192.402344 192.46875 C 192.402344 191.636719 192.792969 190.960938 193.277344 190.960938 C 193.757812 190.960938 194.148438 191.636719 194.148438 192.46875 C 194.148438 193.300781 193.757812 193.976562 193.277344 193.976562 C 192.792969 193.976562 192.402344 193.300781 192.402344 192.46875 " fill-opacity="1" fill-rule="nonzero"/><path fill="#231f20" d="M 214.519531 190.289062 C 211.792969 187.117188 207.898438 187.277344 205.304688 190.265625 C 207.875 188.597656 211.765625 188.4375 214.519531 190.289062 " fill-opacity="1" fill-rule="evenodd"/><path fill="#e69434" d="M 294.378906 267.324219 C 295.601562 267.398438 296.898438 267.394531 298.277344 267.3125 C 299.046875 269.796875 298.058594 272.242188 296.804688 273.550781 C 294.503906 275.558594 292.667969 278.800781 291.296875 283.273438 C 293.1875 282.859375 294.722656 282.882812 295.898438 283.335938 C 296.644531 285.664062 298.609375 288.078125 298.753906 291.34375 C 297.941406 293.667969 296.757812 294.835938 295.199219 294.839844 C 295.222656 290.378906 294.757812 286.671875 293.808594 283.71875 L 287.6875 284.039062 C 289.058594 279.5625 290.898438 276.320312 293.199219 274.3125 C 294.578125 272.871094 295.636719 270.050781 294.378906 267.324219 Z M 312.832031 288.378906 C 312.21875 291.140625 310.894531 292.738281 308.871094 293.175781 C 309.0625 292.960938 309.234375 292.738281 309.394531 292.511719 C 310.941406 292.472656 312.089844 291.09375 312.832031 288.378906 Z M 309.683594 287.015625 C 308.910156 291.664062 307.355469 293.722656 305.023438 293.191406 C 306.808594 291.089844 306.808594 288.4375 304.957031 285.210938 C 304.773438 286.320312 304.570312 287.328125 304.347656 288.234375 C 303.292969 292.519531 301.800781 294.542969 299.863281 294.308594 L 299.992188 293.816406 C 301.851562 292.945312 303.011719 289.894531 303.472656 284.664062 C 304.078125 285.480469 304.371094 286.671875 304.347656 288.234375 C 304.570312 287.328125 304.773438 286.320312 304.957031 285.210938 C 306.808594 288.4375 306.808594 291.089844 304.957031 293.175781 C 306.582031 292.214844 307.761719 289.300781 308.5625 284.449219 C 309.082031 285.347656 309.453125 286.203125 309.683594 287.015625 " fill-opacity="1" fill-rule="evenodd"/><path fill="#e69434" d="M 150.980469 246.191406 C 150.132812 247.6875 149.128906 248.632812 147.964844 249.039062 C 143.847656 246.714844 141.308594 244.066406 140.351562 241.085938 C 141.777344 241.058594 142.847656 240.527344 143.558594 239.496094 C 144.75 242.007812 147.132812 244.277344 150.714844 246.292969 C 150.804688 246.265625 150.894531 246.230469 150.980469 246.191406 Z M 148.441406 228.449219 C 144.964844 229.84375 143.160156 229.296875 143.015625 226.800781 C 143.632812 225.160156 145.085938 223.363281 147.375 221.40625 C 146.617188 222.332031 146.082031 223.21875 145.765625 224.058594 C 145.917969 226.769531 148.042969 227.183594 152.132812 225.300781 C 151.632812 226.574219 150.359375 227.519531 148.316406 228.136719 L 148.441406 228.449219 " fill-opacity="1" fill-rule="evenodd"/><path fill="#e69434" d="M 144.253906 233.296875 C 144.117188 233.628906 143.882812 233.9375 143.550781 234.222656 C 141.007812 233.734375 138.910156 233.578125 137.261719 233.421875 L 134.632812 232.886719 C 132.394531 231.949219 132.398438 229.398438 134.628906 226.117188 L 134.859375 226.292969 C 133.171875 229.320312 133.589844 231.566406 136.121094 232.269531 C 137.902344 232.609375 140.613281 232.617188 144.253906 233.296875 Z M 141.515625 226.566406 C 141.503906 226.953125 141.558594 227.359375 141.6875 227.777344 C 134.976562 225.863281 133.300781 223.46875 136.664062 220.589844 C 134.726562 222.921875 136.34375 224.914062 141.515625 226.566406 Z M 142.632812 237.9375 C 142.238281 238.667969 141.332031 239.195312 139.910156 239.515625 C 134.152344 239.796875 132.09375 237.882812 133.742188 233.78125 L 134.292969 233.890625 C 133.367188 237.304688 135.535156 238.882812 140.804688 238.625 C 141.558594 238.453125 142.167969 238.226562 142.632812 237.9375 Z M 147.839844 218.898438 C 147.363281 219.144531 146.925781 219.464844 146.515625 219.828125 C 145.863281 220.542969 145.257812 221.328125 144.621094 222.035156 C 144.269531 222.304688 144 222.621094 143.726562 222.925781 C 139.671875 220.199219 137.8125 217.527344 139.042969 214.558594 C 139.285156 214.386719 139.523438 214.246094 139.769531 214.128906 C 138.914062 216.898438 140.75 219.417969 144.539062 221.984375 C 145.257812 221.328125 145.863281 220.542969 146.515625 219.828125 C 146.898438 219.410156 147.300781 219.011719 147.730469 218.667969 L 147.839844 218.898438 " fill-opacity="1" fill-rule="nonzero"/><path fill="#af1b2d" d="M 193.800781 261.695312 C 194.421875 263.257812 195.121094 264.789062 195.890625 266.289062 C 175.84375 273.097656 159.753906 269.3125 147.628906 254.933594 C 148.949219 253.988281 150.242188 252.769531 151.410156 251.328125 C 162.464844 263.007812 176.597656 266.464844 193.800781 261.695312 Z M 156.199219 240.773438 C 156.359375 239.832031 156.464844 238.867188 156.503906 237.878906 L 157.226562 238.167969 C 156.933594 239.070312 156.585938 239.941406 156.199219 240.773438 " fill-opacity="1" fill-rule="evenodd"/><path fill="#af1b2d" d="M 308.589844 261.957031 C 303.382812 263.964844 297.617188 264.769531 292.902344 264.148438 C 286.671875 257.878906 280.914062 253.015625 275.492188 249.660156 C 275.785156 249.203125 280.925781 247.644531 294.984375 261.789062 C 298.238281 262.21875 308.019531 260.28125 308.589844 261.957031 Z M 272.523438 253.238281 C 272.796875 253.6875 273.027344 254.152344 273.210938 254.625 C 260.863281 277.902344 220.910156 252.804688 240.847656 218.910156 C 230.148438 246.570312 258.523438 266.074219 272.523438 253.238281 " fill-opacity="1" fill-rule="evenodd"/><path fill="#2853a9" d="M 195.707031 224.535156 C 196.488281 226.351562 197.347656 227.640625 198.289062 228.410156 C 192.234375 244.542969 198.769531 264.410156 217.898438 288.015625 C 216.796875 288.34375 215.761719 288.671875 214.792969 288.996094 C 193.382812 263.046875 187.023438 241.554688 195.707031 224.535156 Z M 205.160156 243.683594 L 219.195312 243.398438 C 218.972656 232.554688 223.136719 222.300781 231.675781 212.632812 C 234.46875 210.835938 237.546875 210.332031 240.917969 211.125 C 239.128906 211.304688 237.433594 211.910156 235.835938 212.9375 C 227.292969 222.605469 223.132812 232.859375 223.355469 243.703125 L 205.371094 244.066406 Z M 261.367188 267.835938 C 266.222656 267.839844 271.347656 266.628906 276.453125 264.089844 L 277.09375 265.933594 C 271.683594 267.988281 266.324219 268.574219 261.367188 267.835938 " fill-opacity="1" fill-rule="evenodd"/><path fill="#2853a9" d="M 262.78125 287.257812 C 269.105469 287.875 274.628906 288.621094 279.355469 289.476562 L 278.070312 292.902344 C 274.210938 292.296875 269.898438 291.761719 265.132812 291.292969 C 223.515625 287.21875 193.070312 303.769531 174.144531 336.523438 C 173.320312 335.328125 172.488281 334.0625 171.65625 332.71875 C 190.570312 299.8125 221.0625 283.167969 262.78125 287.257812 Z M 286.71875 295.078125 C 287.257812 295.917969 287.695312 296.679688 287.953125 297.425781 C 287.523438 296.777344 287.070312 296.070312 286.617188 295.285156 L 286.71875 295.078125 " fill-opacity="1" fill-rule="evenodd"/><path fill="#af1b2d" d="M 236.957031 189.292969 C 228.660156 182.289062 219.613281 176.074219 207.890625 172.933594 C 219.792969 175.277344 229.003906 180.714844 237.257812 187.199219 C 237.179688 187.894531 237.082031 188.59375 236.957031 189.292969 Z M 202.03125 171.667969 C 200.679688 171.445312 199.289062 171.257812 197.867188 171.117188 C 201.089844 163.347656 208.722656 159.292969 221.660156 162.707031 C 221.898438 162.773438 222.132812 162.835938 222.367188 162.90625 C 211.609375 160.996094 205.046875 164.820312 202.03125 171.667969 " fill-opacity="1" fill-rule="evenodd"/><path fill="#af1b2d" d="M 219.101562 183.210938 C 205.519531 188.101562 183.855469 175 178.34375 175.203125 C 180.21875 173.914062 183.371094 173.164062 187.796875 172.953125 C 186.832031 173.269531 186.019531 173.65625 185.363281 174.105469 C 189.992188 173.9375 206.035156 183.167969 219.101562 183.210938 " fill-opacity="1" fill-rule="evenodd"/><path fill="#231f20" d="M 233.113281 198.425781 C 231.945312 198.886719 230.976562 199.972656 230.203125 201.675781 C 231.835938 203.101562 231.707031 204.429688 229.816406 205.664062 C 232.421875 204.464844 233.027344 203.191406 231.644531 201.832031 L 233.113281 198.425781 " fill-opacity="1" fill-rule="evenodd"/><g clip-path="url(#dcddf17201)"><path fill="#ffffff" d="M 156.339844 149.328125 C 150.253906 165.40625 156.71875 185.886719 165.558594 194.625 C 150.363281 188.160156 136.425781 178.007812 125.476562 164.5625 C 122.691406 161.144531 117.574219 153.335938 113.851562 152.539062 C 109.652344 151.636719 103.808594 153.871094 100.621094 154.140625 C 59.640625 157.601562 19.921875 143.035156 8.023438 113.25 C 2.386719 99.136719 3.054688 80.257812 6.820312 68.355469 C 13.621094 46.84375 28.433594 33.996094 47.707031 24.261719 C 57.554688 19.285156 67.539062 15.128906 78.574219 12.636719 C 90.121094 10.027344 101.679688 8.847656 115.050781 8.226562 C 162.546875 6.019531 204.65625 17.011719 226.890625 42.300781 C 230.386719 46.269531 234.160156 51.363281 236.515625 56.730469 C 239.332031 63.15625 242.867188 70.53125 243.324219 78.375 C 244.558594 99.316406 231.558594 115.277344 218.875 125.679688 C 202.417969 139.171875 178.863281 144.691406 156.339844 149.328125 Z M 213.261719 134.496094 C 226.394531 125.40625 241.625 112.128906 245.730469 94.8125 C 249.5 78.9375 244.621094 62.84375 238.519531 51.519531 C 217.679688 12.867188 161.269531 -0.324219 103.425781 3.816406 C 97.105469 4.269531 91.261719 5.058594 85.386719 6.222656 C 51.324219 12.957031 24.609375 26.585938 9.625 51.921875 C -1.183594 70.199219 -3.992188 101.160156 7.21875 121.269531 C 23.042969 149.652344 67.105469 164.691406 112.246094 156.945312 C 124.71875 171.519531 138.777344 185.582031 155.941406 195.027344 C 161.828125 198.265625 170.726562 204.371094 177.988281 203.046875 C 178.03125 196.285156 170.769531 194.449219 167.164062 190.214844 C 160.425781 182.304688 154.707031 167.203125 159.949219 153.335938 C 179.5625 148.15625 198.246094 144.894531 213.261719 134.496094 " fill-opacity="1" fill-rule="evenodd"/></g><g fill="#ffffff" fill-opacity="1"><g transform="translate(22.485161, 67.727115)"><g><path d="M 8.34375 -19.265625 C 9.375 -19.265625 10.378906 -19.113281 11.359375 -18.8125 C 12.335938 -18.519531 13.0625 -18.226562 13.53125 -17.9375 L 14.21875 -17.484375 L 12.484375 -14.03125 C 12.335938 -14.125 12.140625 -14.242188 11.890625 -14.390625 C 11.648438 -14.535156 11.191406 -14.726562 10.515625 -14.96875 C 9.847656 -15.21875 9.222656 -15.34375 8.640625 -15.34375 C 7.921875 -15.34375 7.367188 -15.1875 6.984375 -14.875 C 6.597656 -14.570312 6.40625 -14.160156 6.40625 -13.640625 C 6.40625 -13.390625 6.492188 -13.148438 6.671875 -12.921875 C 6.859375 -12.703125 7.171875 -12.460938 7.609375 -12.203125 C 8.054688 -11.953125 8.445312 -11.75 8.78125 -11.59375 C 9.125 -11.445312 9.644531 -11.222656 10.34375 -10.921875 C 11.570312 -10.398438 12.613281 -9.691406 13.46875 -8.796875 C 14.332031 -7.898438 14.765625 -6.882812 14.765625 -5.75 C 14.765625 -4.664062 14.570312 -3.71875 14.1875 -2.90625 C 13.800781 -2.101562 13.265625 -1.472656 12.578125 -1.015625 C 11.898438 -0.554688 11.144531 -0.21875 10.3125 0 C 9.488281 0.226562 8.597656 0.34375 7.640625 0.34375 C 6.816406 0.34375 6.003906 0.257812 5.203125 0.09375 C 4.410156 -0.0703125 3.742188 -0.28125 3.203125 -0.53125 C 2.671875 -0.789062 2.191406 -1.039062 1.765625 -1.28125 C 1.335938 -1.53125 1.023438 -1.738281 0.828125 -1.90625 L 0.53125 -2.15625 L 2.6875 -5.78125 C 2.863281 -5.625 3.113281 -5.425781 3.4375 -5.1875 C 3.757812 -4.957031 4.328125 -4.640625 5.140625 -4.234375 C 5.960938 -3.835938 6.6875 -3.640625 7.3125 -3.640625 C 9.132812 -3.640625 10.046875 -4.257812 10.046875 -5.5 C 10.046875 -5.757812 9.976562 -6 9.84375 -6.21875 C 9.71875 -6.445312 9.488281 -6.671875 9.15625 -6.890625 C 8.832031 -7.109375 8.539062 -7.28125 8.28125 -7.40625 C 8.03125 -7.539062 7.617188 -7.742188 7.046875 -8.015625 C 6.472656 -8.285156 6.050781 -8.488281 5.78125 -8.625 C 4.632812 -9.1875 3.742188 -9.890625 3.109375 -10.734375 C 2.484375 -11.585938 2.171875 -12.503906 2.171875 -13.484375 C 2.171875 -15.179688 2.796875 -16.566406 4.046875 -17.640625 C 5.304688 -18.722656 6.738281 -19.265625 8.34375 -19.265625 Z M 8.34375 -19.265625 "/></g></g></g><g fill="#ffffff" fill-opacity="1"><g transform="translate(37.889527, 67.727115)"><g><path d="M 2.171875 -1.453125 C 1.078125 -2.648438 0.53125 -4.117188 0.53125 -5.859375 C 0.53125 -7.609375 1.078125 -9.085938 2.171875 -10.296875 C 3.273438 -11.503906 4.675781 -12.109375 6.375 -12.109375 C 7.9375 -12.109375 9.222656 -11.617188 10.234375 -10.640625 L 10.234375 -11.765625 L 14.296875 -11.765625 L 14.296875 0 L 10.28125 0 L 10.28125 -1.328125 L 10.234375 -1.328125 C 9.222656 -0.210938 7.9375 0.34375 6.375 0.34375 C 4.675781 0.34375 3.273438 -0.253906 2.171875 -1.453125 Z M 5.625 -7.859375 C 5.101562 -7.347656 4.84375 -6.6875 4.84375 -5.875 C 4.84375 -5.0625 5.09375 -4.398438 5.59375 -3.890625 C 6.101562 -3.378906 6.769531 -3.125 7.59375 -3.125 C 8.382812 -3.125 9.035156 -3.378906 9.546875 -3.890625 C 10.066406 -4.410156 10.328125 -5.070312 10.328125 -5.875 C 10.328125 -6.6875 10.0625 -7.347656 9.53125 -7.859375 C 9 -8.378906 8.351562 -8.640625 7.59375 -8.640625 C 6.8125 -8.640625 6.15625 -8.378906 5.625 -7.859375 Z M 5.625 -7.859375 "/></g></g></g><g fill="#ffffff" fill-opacity="1"><g transform="translate(53.546033, 67.727115)"><g><path d="M 4.359375 -11.765625 L 7.21875 -5.375 L 10.09375 -11.765625 L 14.90625 -11.765625 L 8.609375 0 L 5.84375 0 L -0.453125 -11.765625 Z M 4.359375 -11.765625 "/></g></g></g><g fill="#ffffff" fill-opacity="1"><g transform="translate(67.987617, 67.727115)"><g><path d="M 1.765625 -18.3125 C 2.242188 -18.789062 2.8125 -19.03125 3.46875 -19.03125 C 4.125 -19.03125 4.6875 -18.789062 5.15625 -18.3125 C 5.632812 -17.84375 5.875 -17.28125 5.875 -16.625 C 5.875 -15.96875 5.632812 -15.398438 5.15625 -14.921875 C 4.6875 -14.453125 4.125 -14.21875 3.46875 -14.21875 C 2.8125 -14.21875 2.242188 -14.453125 1.765625 -14.921875 C 1.296875 -15.398438 1.0625 -15.96875 1.0625 -16.625 C 1.0625 -17.28125 1.296875 -17.84375 1.765625 -18.3125 Z M 1.375 -11.765625 L 1.375 0 L 5.4375 0 L 5.4375 -11.765625 Z M 1.375 -11.765625 "/></g></g></g><g fill="#ffffff" fill-opacity="1"><g transform="translate(74.910409, 67.727115)"><g><path d="M 1.375 0 L 1.375 -11.765625 L 5.4375 -11.765625 L 5.4375 -10.53125 L 5.484375 -10.53125 C 6.535156 -11.582031 7.660156 -12.109375 8.859375 -12.109375 C 9.429688 -12.109375 10.003906 -12.03125 10.578125 -11.875 C 11.160156 -11.726562 11.710938 -11.492188 12.234375 -11.171875 C 12.765625 -10.847656 13.191406 -10.390625 13.515625 -9.796875 C 13.847656 -9.210938 14.015625 -8.53125 14.015625 -7.75 L 14.015625 0 L 9.953125 0 L 9.953125 -6.65625 C 9.953125 -7.257812 9.753906 -7.789062 9.359375 -8.25 C 8.972656 -8.71875 8.46875 -8.953125 7.84375 -8.953125 C 7.226562 -8.953125 6.671875 -8.710938 6.171875 -8.234375 C 5.679688 -7.765625 5.4375 -7.238281 5.4375 -6.65625 L 5.4375 0 Z M 1.375 0 "/></g></g></g><g fill="#ffffff" fill-opacity="1"><g transform="translate(90.062616, 67.727115)"><g><path d="M 0.84375 2.890625 L 4.171875 1.265625 C 4.785156 2.273438 5.847656 2.78125 7.359375 2.78125 C 8.066406 2.78125 8.722656 2.550781 9.328125 2.09375 C 9.929688 1.644531 10.234375 0.953125 10.234375 0.015625 L 10.234375 -0.84375 C 9.515625 -0.0507812 8.226562 0.34375 6.375 0.34375 C 4.675781 0.34375 3.273438 -0.253906 2.171875 -1.453125 C 1.078125 -2.648438 0.53125 -4.117188 0.53125 -5.859375 C 0.53125 -7.609375 1.078125 -9.085938 2.171875 -10.296875 C 3.273438 -11.503906 4.675781 -12.109375 6.375 -12.109375 C 7.882812 -12.109375 9.144531 -11.644531 10.15625 -10.71875 L 10.234375 -10.71875 L 10.234375 -11.765625 L 14.296875 -11.765625 L 14.296875 0.328125 C 14.296875 2.234375 13.660156 3.707031 12.390625 4.75 C 11.117188 5.789062 9.441406 6.3125 7.359375 6.3125 C 3.992188 6.3125 1.820312 5.171875 0.84375 2.890625 Z M 5.625 -7.859375 C 5.101562 -7.347656 4.84375 -6.6875 4.84375 -5.875 C 4.84375 -5.0625 5.09375 -4.398438 5.59375 -3.890625 C 6.101562 -3.378906 6.769531 -3.125 7.59375 -3.125 C 8.382812 -3.125 9.035156 -3.378906 9.546875 -3.890625 C 10.066406 -4.410156 10.328125 -5.070312 10.328125 -5.875 C 10.328125 -6.6875 10.0625 -7.347656 9.53125 -7.859375 C 9 -8.378906 8.351562 -8.640625 7.59375 -8.640625 C 6.8125 -8.640625 6.15625 -8.378906 5.625 -7.859375 Z M 5.625 -7.859375 "/></g></g></g><g fill="#ffffff" fill-opacity="1"><g transform="translate(105.719123, 67.727115)"><g/></g></g><g fill="#ffffff" fill-opacity="1"><g transform="translate(111.97714, 67.727115)"><g><path d="M 1.375 0 L 1.375 -11.765625 L 5.4375 -11.765625 L 5.4375 -10.53125 L 5.484375 -10.53125 C 6.535156 -11.582031 7.660156 -12.109375 8.859375 -12.109375 C 9.710938 -12.109375 10.515625 -11.929688 11.265625 -11.578125 C 12.015625 -11.234375 12.578125 -10.691406 12.953125 -9.953125 C 14.148438 -11.390625 15.453125 -12.109375 16.859375 -12.109375 C 18.109375 -12.109375 19.1875 -11.753906 20.09375 -11.046875 C 21 -10.347656 21.453125 -9.25 21.453125 -7.75 L 21.453125 0 L 17.390625 0 L 17.390625 -6.65625 C 17.390625 -7.28125 17.21875 -7.800781 16.875 -8.21875 C 16.53125 -8.644531 16.015625 -8.859375 15.328125 -8.859375 C 14.722656 -8.859375 14.265625 -8.675781 13.953125 -8.3125 C 13.640625 -7.957031 13.46875 -7.523438 13.4375 -7.015625 L 13.4375 0 L 9.375 0 L 9.375 -6.65625 C 9.375 -7.28125 9.203125 -7.800781 8.859375 -8.21875 C 8.515625 -8.644531 8 -8.859375 7.3125 -8.859375 C 6.6875 -8.859375 6.21875 -8.660156 5.90625 -8.265625 C 5.59375 -7.878906 5.4375 -7.414062 5.4375 -6.875 L 5.4375 0 Z M 1.375 0 "/></g></g></g><g fill="#ffffff" fill-opacity="1"><g transform="translate(134.556439, 67.727115)"><g><path d="M 13.28125 -5.328125 L 4.75 -5.328125 C 4.75 -4.492188 5.015625 -3.878906 5.546875 -3.484375 C 6.085938 -3.085938 6.671875 -2.890625 7.296875 -2.890625 C 7.953125 -2.890625 8.46875 -2.976562 8.84375 -3.15625 C 9.226562 -3.332031 9.664062 -3.679688 10.15625 -4.203125 L 13.09375 -2.734375 C 11.875 -0.679688 9.84375 0.34375 7 0.34375 C 5.21875 0.34375 3.691406 -0.257812 2.421875 -1.46875 C 1.160156 -2.6875 0.53125 -4.148438 0.53125 -5.859375 C 0.53125 -7.578125 1.160156 -9.046875 2.421875 -10.265625 C 3.691406 -11.492188 5.21875 -12.109375 7 -12.109375 C 8.863281 -12.109375 10.378906 -11.566406 11.546875 -10.484375 C 12.710938 -9.410156 13.296875 -7.875 13.296875 -5.875 C 13.296875 -5.59375 13.289062 -5.410156 13.28125 -5.328125 Z M 4.859375 -7.5625 L 9.328125 -7.5625 C 9.242188 -8.175781 9.003906 -8.644531 8.609375 -8.96875 C 8.222656 -9.300781 7.722656 -9.46875 7.109375 -9.46875 C 6.429688 -9.46875 5.894531 -9.289062 5.5 -8.9375 C 5.101562 -8.59375 4.890625 -8.132812 4.859375 -7.5625 Z M 4.859375 -7.5625 "/></g></g></g><g fill="#ffffff" fill-opacity="1"><g transform="translate(148.379098, 67.727115)"><g/></g></g><g fill="#ffffff" fill-opacity="1"><g transform="translate(154.637115, 67.727115)"><g><path d="M 0.1875 -15.140625 L 0.1875 -18.921875 L 13.484375 -18.921875 L 13.484375 -15.140625 L 8.984375 -15.140625 L 8.984375 0 L 4.671875 0 L 4.671875 -15.140625 Z M 0.1875 -15.140625 "/></g></g></g><g fill="#ffffff" fill-opacity="1"><g transform="translate(168.299316, 67.727115)"><g><path d="M 5.6875 -18.921875 L 5.6875 0 L 1.375 0 L 1.375 -18.921875 Z M 5.6875 -18.921875 "/></g></g></g><g fill="#ffffff" fill-opacity="1"><g transform="translate(175.359641, 67.727115)"><g><path d="M 17.015625 0 L 16.125 -11.21875 L 16.015625 -11.21875 L 12.140625 -0.109375 L 9.5625 -0.109375 L 5.6875 -11.21875 L 5.578125 -11.21875 L 4.671875 0 L 0.359375 0 L 2.0625 -18.921875 L 6.65625 -18.921875 L 10.84375 -8 L 15.046875 -18.921875 L 19.640625 -18.921875 L 21.328125 0 Z M 17.015625 0 "/></g></g></g><g fill="#ffffff" fill-opacity="1"><g transform="translate(197.044951, 67.727115)"><g><path d="M 12.203125 -18.921875 L 12.203125 -15.140625 L 5.6875 -15.140625 L 5.6875 -11.375 L 11.921875 -11.375 L 11.921875 -7.59375 L 5.6875 -7.59375 L 5.6875 -3.78125 L 12.203125 -3.78125 L 12.203125 0 L 1.375 0 L 1.375 -18.921875 Z M 12.203125 -18.921875 "/></g></g></g><g fill="#ffffff" fill-opacity="1"><g transform="translate(210.340386, 67.727115)"><g><path d="M 3.984375 -4.90625 C 4.722656 -4.90625 5.347656 -4.648438 5.859375 -4.140625 C 6.367188 -3.628906 6.625 -3.003906 6.625 -2.265625 C 6.625 -0.00390625 5.34375 2.1875 2.78125 4.3125 L 1.609375 3.34375 C 1.710938 3.257812 1.84375 3.125 2 2.9375 C 2.164062 2.75 2.40625 2.375 2.71875 1.8125 C 3.03125 1.257812 3.238281 0.703125 3.34375 0.140625 C 2.769531 0.00390625 2.296875 -0.28125 1.921875 -0.71875 C 1.554688 -1.15625 1.375 -1.671875 1.375 -2.265625 C 1.375 -3.003906 1.628906 -3.628906 2.140625 -4.140625 C 2.648438 -4.648438 3.265625 -4.90625 3.984375 -4.90625 Z M 3.984375 -4.90625 "/></g></g></g><g fill="#ffffff" fill-opacity="1"><g transform="translate(218.341869, 67.727115)"><g/></g></g><g fill="#ffffff" fill-opacity="1"><g transform="translate(16.240289, 99.408418)"><g><path d="M 6.484375 -12.109375 C 7.160156 -12.109375 7.828125 -12.03125 8.484375 -11.875 C 9.140625 -11.726562 9.628906 -11.578125 9.953125 -11.421875 L 10.4375 -11.1875 L 9.109375 -8.53125 C 8.191406 -9.019531 7.316406 -9.265625 6.484375 -9.265625 C 6.023438 -9.265625 5.703125 -9.210938 5.515625 -9.109375 C 5.328125 -9.015625 5.234375 -8.832031 5.234375 -8.5625 C 5.234375 -8.5 5.238281 -8.4375 5.25 -8.375 C 5.269531 -8.3125 5.300781 -8.253906 5.34375 -8.203125 C 5.382812 -8.148438 5.425781 -8.101562 5.46875 -8.0625 C 5.507812 -8.019531 5.570312 -7.976562 5.65625 -7.9375 C 5.75 -7.894531 5.820312 -7.859375 5.875 -7.828125 C 5.9375 -7.804688 6.023438 -7.769531 6.140625 -7.71875 C 6.265625 -7.675781 6.359375 -7.644531 6.421875 -7.625 C 6.484375 -7.601562 6.585938 -7.566406 6.734375 -7.515625 C 6.878906 -7.472656 6.988281 -7.445312 7.0625 -7.4375 C 7.539062 -7.289062 7.953125 -7.132812 8.296875 -6.96875 C 8.648438 -6.800781 9.019531 -6.570312 9.40625 -6.28125 C 9.800781 -5.988281 10.101562 -5.617188 10.3125 -5.171875 C 10.53125 -4.734375 10.640625 -4.234375 10.640625 -3.671875 C 10.640625 -0.992188 8.78125 0.34375 5.0625 0.34375 C 4.226562 0.34375 3.429688 0.210938 2.671875 -0.046875 C 1.910156 -0.304688 1.363281 -0.566406 1.03125 -0.828125 L 0.53125 -1.234375 L 2.171875 -4.015625 C 2.296875 -3.910156 2.457031 -3.785156 2.65625 -3.640625 C 2.851562 -3.492188 3.210938 -3.289062 3.734375 -3.03125 C 4.253906 -2.78125 4.707031 -2.65625 5.09375 -2.65625 C 5.9375 -2.65625 6.359375 -2.941406 6.359375 -3.515625 C 6.359375 -3.773438 6.25 -3.972656 6.03125 -4.109375 C 5.820312 -4.253906 5.457031 -4.421875 4.9375 -4.609375 C 4.425781 -4.796875 4.023438 -4.960938 3.734375 -5.109375 C 3.003906 -5.492188 2.425781 -5.925781 2 -6.40625 C 1.570312 -6.894531 1.359375 -7.535156 1.359375 -8.328125 C 1.359375 -9.515625 1.816406 -10.441406 2.734375 -11.109375 C 3.660156 -11.773438 4.910156 -12.109375 6.484375 -12.109375 Z M 6.484375 -12.109375 "/></g></g></g><g fill="#ffffff" fill-opacity="1"><g transform="translate(27.518475, 99.408418)"><g><path d="M 2.171875 -1.453125 C 1.078125 -2.648438 0.53125 -4.117188 0.53125 -5.859375 C 0.53125 -7.609375 1.078125 -9.085938 2.171875 -10.296875 C 3.273438 -11.503906 4.675781 -12.109375 6.375 -12.109375 C 7.9375 -12.109375 9.222656 -11.617188 10.234375 -10.640625 L 10.234375 -11.765625 L 14.296875 -11.765625 L 14.296875 0 L 10.28125 0 L 10.28125 -1.328125 L 10.234375 -1.328125 C 9.222656 -0.210938 7.9375 0.34375 6.375 0.34375 C 4.675781 0.34375 3.273438 -0.253906 2.171875 -1.453125 Z M 5.625 -7.859375 C 5.101562 -7.347656 4.84375 -6.6875 4.84375 -5.875 C 4.84375 -5.0625 5.09375 -4.398438 5.59375 -3.890625 C 6.101562 -3.378906 6.769531 -3.125 7.59375 -3.125 C 8.382812 -3.125 9.035156 -3.378906 9.546875 -3.890625 C 10.066406 -4.410156 10.328125 -5.070312 10.328125 -5.875 C 10.328125 -6.6875 10.0625 -7.347656 9.53125 -7.859375 C 9 -8.378906 8.351562 -8.640625 7.59375 -8.640625 C 6.8125 -8.640625 6.15625 -8.378906 5.625 -7.859375 Z M 5.625 -7.859375 "/></g></g></g><g fill="#ffffff" fill-opacity="1"><g transform="translate(43.174981, 99.408418)"><g><path d="M 4.359375 -11.765625 L 7.21875 -5.375 L 10.09375 -11.765625 L 14.90625 -11.765625 L 8.609375 0 L 5.84375 0 L -0.453125 -11.765625 Z M 4.359375 -11.765625 "/></g></g></g><g fill="#ffffff" fill-opacity="1"><g transform="translate(57.616565, 99.408418)"><g><path d="M 13.28125 -5.328125 L 4.75 -5.328125 C 4.75 -4.492188 5.015625 -3.878906 5.546875 -3.484375 C 6.085938 -3.085938 6.671875 -2.890625 7.296875 -2.890625 C 7.953125 -2.890625 8.46875 -2.976562 8.84375 -3.15625 C 9.226562 -3.332031 9.664062 -3.679688 10.15625 -4.203125 L 13.09375 -2.734375 C 11.875 -0.679688 9.84375 0.34375 7 0.34375 C 5.21875 0.34375 3.691406 -0.257812 2.421875 -1.46875 C 1.160156 -2.6875 0.53125 -4.148438 0.53125 -5.859375 C 0.53125 -7.578125 1.160156 -9.046875 2.421875 -10.265625 C 3.691406 -11.492188 5.21875 -12.109375 7 -12.109375 C 8.863281 -12.109375 10.378906 -11.566406 11.546875 -10.484375 C 12.710938 -9.410156 13.296875 -7.875 13.296875 -5.875 C 13.296875 -5.59375 13.289062 -5.410156 13.28125 -5.328125 Z M 4.859375 -7.5625 L 9.328125 -7.5625 C 9.242188 -8.175781 9.003906 -8.644531 8.609375 -8.96875 C 8.222656 -9.300781 7.722656 -9.46875 7.109375 -9.46875 C 6.429688 -9.46875 5.894531 -9.289062 5.5 -8.9375 C 5.101562 -8.59375 4.890625 -8.132812 4.859375 -7.5625 Z M 4.859375 -7.5625 "/></g></g></g><g fill="#ffffff" fill-opacity="1"><g transform="translate(71.439223, 99.408418)"><g><path d="M 6.484375 -12.109375 C 7.160156 -12.109375 7.828125 -12.03125 8.484375 -11.875 C 9.140625 -11.726562 9.628906 -11.578125 9.953125 -11.421875 L 10.4375 -11.1875 L 9.109375 -8.53125 C 8.191406 -9.019531 7.316406 -9.265625 6.484375 -9.265625 C 6.023438 -9.265625 5.703125 -9.210938 5.515625 -9.109375 C 5.328125 -9.015625 5.234375 -8.832031 5.234375 -8.5625 C 5.234375 -8.5 5.238281 -8.4375 5.25 -8.375 C 5.269531 -8.3125 5.300781 -8.253906 5.34375 -8.203125 C 5.382812 -8.148438 5.425781 -8.101562 5.46875 -8.0625 C 5.507812 -8.019531 5.570312 -7.976562 5.65625 -7.9375 C 5.75 -7.894531 5.820312 -7.859375 5.875 -7.828125 C 5.9375 -7.804688 6.023438 -7.769531 6.140625 -7.71875 C 6.265625 -7.675781 6.359375 -7.644531 6.421875 -7.625 C 6.484375 -7.601562 6.585938 -7.566406 6.734375 -7.515625 C 6.878906 -7.472656 6.988281 -7.445312 7.0625 -7.4375 C 7.539062 -7.289062 7.953125 -7.132812 8.296875 -6.96875 C 8.648438 -6.800781 9.019531 -6.570312 9.40625 -6.28125 C 9.800781 -5.988281 10.101562 -5.617188 10.3125 -5.171875 C 10.53125 -4.734375 10.640625 -4.234375 10.640625 -3.671875 C 10.640625 -0.992188 8.78125 0.34375 5.0625 0.34375 C 4.226562 0.34375 3.429688 0.210938 2.671875 -0.046875 C 1.910156 -0.304688 1.363281 -0.566406 1.03125 -0.828125 L 0.53125 -1.234375 L 2.171875 -4.015625 C 2.296875 -3.910156 2.457031 -3.785156 2.65625 -3.640625 C 2.851562 -3.492188 3.210938 -3.289062 3.734375 -3.03125 C 4.253906 -2.78125 4.707031 -2.65625 5.09375 -2.65625 C 5.9375 -2.65625 6.359375 -2.941406 6.359375 -3.515625 C 6.359375 -3.773438 6.25 -3.972656 6.03125 -4.109375 C 5.820312 -4.253906 5.457031 -4.421875 4.9375 -4.609375 C 4.425781 -4.796875 4.023438 -4.960938 3.734375 -5.109375 C 3.003906 -5.492188 2.425781 -5.925781 2 -6.40625 C 1.570312 -6.894531 1.359375 -7.535156 1.359375 -8.328125 C 1.359375 -9.515625 1.816406 -10.441406 2.734375 -11.109375 C 3.660156 -11.773438 4.910156 -12.109375 6.484375 -12.109375 Z M 6.484375 -12.109375 "/></g></g></g><g fill="#ffffff" fill-opacity="1"><g transform="translate(82.71741, 99.408418)"><g/></g></g><g fill="#ffffff" fill-opacity="1"><g transform="translate(88.975427, 99.408418)"><g><path d="M 10.296875 -11.765625 L 14.984375 -11.765625 L 5.734375 5.96875 L 1.0625 5.96875 L 5.109375 -1.828125 L -0.453125 -11.765625 L 4.21875 -11.765625 L 7.5 -5.734375 Z M 10.296875 -11.765625 "/></g></g></g><g fill="#ffffff" fill-opacity="1"><g transform="translate(103.485786, 99.408418)"><g><path d="M 2.484375 -1.390625 C 1.179688 -2.554688 0.53125 -4.050781 0.53125 -5.875 C 0.53125 -7.695312 1.207031 -9.191406 2.5625 -10.359375 C 3.925781 -11.523438 5.609375 -12.109375 7.609375 -12.109375 C 9.585938 -12.109375 11.253906 -11.519531 12.609375 -10.34375 C 13.960938 -9.164062 14.640625 -7.675781 14.640625 -5.875 C 14.640625 -4.070312 13.976562 -2.582031 12.65625 -1.40625 C 11.332031 -0.238281 9.648438 0.34375 7.609375 0.34375 C 5.503906 0.34375 3.796875 -0.234375 2.484375 -1.390625 Z M 5.625 -7.859375 C 5.101562 -7.347656 4.84375 -6.6875 4.84375 -5.875 C 4.84375 -5.0625 5.09375 -4.398438 5.59375 -3.890625 C 6.101562 -3.378906 6.769531 -3.125 7.59375 -3.125 C 8.382812 -3.125 9.035156 -3.378906 9.546875 -3.890625 C 10.066406 -4.410156 10.328125 -5.070312 10.328125 -5.875 C 10.328125 -6.6875 10.0625 -7.347656 9.53125 -7.859375 C 9 -8.378906 8.351562 -8.640625 7.59375 -8.640625 C 6.8125 -8.640625 6.15625 -8.378906 5.625 -7.859375 Z M 5.625 -7.859375 "/></g></g></g><g fill="#ffffff" fill-opacity="1"><g transform="translate(118.637994, 99.408418)"><g><path d="M 5.203125 -11.765625 L 5.203125 -6.171875 C 5.203125 -5.003906 5.378906 -4.175781 5.734375 -3.6875 C 6.085938 -3.195312 6.679688 -2.953125 7.515625 -2.953125 C 8.359375 -2.953125 8.957031 -3.195312 9.3125 -3.6875 C 9.664062 -4.175781 9.84375 -5.003906 9.84375 -6.171875 L 9.84375 -11.765625 L 13.90625 -11.765625 L 13.90625 -5.1875 C 13.90625 -3.226562 13.394531 -1.816406 12.375 -0.953125 C 11.351562 -0.0859375 9.734375 0.34375 7.515625 0.34375 C 5.304688 0.34375 3.691406 -0.0859375 2.671875 -0.953125 C 1.648438 -1.816406 1.140625 -3.226562 1.140625 -5.1875 L 1.140625 -11.765625 Z M 5.203125 -11.765625 "/></g></g></g><g fill="#ffffff" fill-opacity="1"><g transform="translate(133.675576, 99.408418)"><g/></g></g><g fill="#ffffff" fill-opacity="1"><g transform="translate(139.933593, 99.408418)"><g><path d="M 17.015625 0 L 16.125 -11.21875 L 16.015625 -11.21875 L 12.140625 -0.109375 L 9.5625 -0.109375 L 5.6875 -11.21875 L 5.578125 -11.21875 L 4.671875 0 L 0.359375 0 L 2.0625 -18.921875 L 6.65625 -18.921875 L 10.84375 -8 L 15.046875 -18.921875 L 19.640625 -18.921875 L 21.328125 0 Z M 17.015625 0 "/></g></g></g><g fill="#ffffff" fill-opacity="1"><g transform="translate(161.618903, 99.408418)"><g><path d="M 0.53125 -9.46875 C 0.53125 -12.207031 1.460938 -14.523438 3.328125 -16.421875 C 5.191406 -18.316406 7.4375 -19.265625 10.0625 -19.265625 C 12.707031 -19.265625 14.957031 -18.320312 16.8125 -16.4375 C 18.664062 -14.550781 19.59375 -12.226562 19.59375 -9.46875 C 19.59375 -6.707031 18.679688 -4.378906 16.859375 -2.484375 C 15.035156 -0.597656 12.769531 0.34375 10.0625 0.34375 C 7.300781 0.34375 5.019531 -0.59375 3.21875 -2.46875 C 1.425781 -4.34375 0.53125 -6.675781 0.53125 -9.46875 Z M 5.1875 -9.46875 C 5.1875 -8.476562 5.335938 -7.570312 5.640625 -6.75 C 5.941406 -5.9375 6.472656 -5.242188 7.234375 -4.671875 C 8.003906 -4.109375 8.945312 -3.828125 10.0625 -3.828125 C 11.675781 -3.828125 12.890625 -4.378906 13.703125 -5.484375 C 14.523438 -6.585938 14.9375 -7.914062 14.9375 -9.46875 C 14.9375 -11.019531 14.519531 -12.347656 13.6875 -13.453125 C 12.851562 -14.554688 11.644531 -15.109375 10.0625 -15.109375 C 8.507812 -15.109375 7.304688 -14.554688 6.453125 -13.453125 C 5.609375 -12.347656 5.1875 -11.019531 5.1875 -9.46875 Z M 5.1875 -9.46875 "/></g></g></g><g fill="#ffffff" fill-opacity="1"><g transform="translate(181.722505, 99.408418)"><g><path d="M 5.6875 -11.75 L 5.6875 0 L 1.375 0 L 1.375 -18.921875 L 5.6875 -18.921875 L 13.21875 -7.171875 L 13.265625 -7.171875 L 13.265625 -18.921875 L 17.5625 -18.921875 L 17.5625 0 L 13.265625 0 L 5.734375 -11.75 Z M 5.6875 -11.75 "/></g></g></g><g fill="#ffffff" fill-opacity="1"><g transform="translate(200.657033, 99.408418)"><g><path d="M 12.203125 -18.921875 L 12.203125 -15.140625 L 5.6875 -15.140625 L 5.6875 -11.375 L 11.921875 -11.375 L 11.921875 -7.59375 L 5.6875 -7.59375 L 5.6875 -3.78125 L 12.203125 -3.78125 L 12.203125 0 L 1.375 0 L 1.375 -18.921875 Z M 12.203125 -18.921875 "/></g></g></g><g fill="#ffffff" fill-opacity="1"><g transform="translate(213.952469, 99.408418)"><g><path d="M -0.6875 -18.921875 L 4.5 -18.921875 L 8.4375 -12.875 L 12.390625 -18.921875 L 17.5625 -18.921875 L 10.59375 -8.484375 L 10.59375 0 L 6.28125 0 L 6.28125 -8.484375 Z M -0.6875 -18.921875 "/></g></g></g><g fill="#ffffff" fill-opacity="1"><g transform="translate(65.390933, 123.482658)"><g><path d="M 1.234375 0.046875 C 1.078125 0.046875 0.941406 0.015625 0.828125 -0.046875 C 0.710938 -0.117188 0.625 -0.207031 0.5625 -0.3125 C 0.5 -0.425781 0.46875 -0.550781 0.46875 -0.6875 C 0.46875 -0.832031 0.5 -0.957031 0.5625 -1.0625 C 0.625 -1.175781 0.710938 -1.265625 0.828125 -1.328125 C 0.941406 -1.398438 1.078125 -1.4375 1.234375 -1.4375 C 1.398438 -1.4375 1.539062 -1.40625 1.65625 -1.34375 C 1.769531 -1.28125 1.859375 -1.191406 1.921875 -1.078125 C 1.984375 -0.960938 2.015625 -0.835938 2.015625 -0.703125 C 2.015625 -0.484375 1.941406 -0.300781 1.796875 -0.15625 C 1.660156 -0.0195312 1.472656 0.046875 1.234375 0.046875 Z M 1.234375 0.046875 "/></g></g><g transform="translate(67.873843, 123.482658)"><g><path d="M 1.234375 0.046875 C 1.078125 0.046875 0.941406 0.015625 0.828125 -0.046875 C 0.710938 -0.117188 0.625 -0.207031 0.5625 -0.3125 C 0.5 -0.425781 0.46875 -0.550781 0.46875 -0.6875 C 0.46875 -0.832031 0.5 -0.957031 0.5625 -1.0625 C 0.625 -1.175781 0.710938 -1.265625 0.828125 -1.328125 C 0.941406 -1.398438 1.078125 -1.4375 1.234375 -1.4375 C 1.398438 -1.4375 1.539062 -1.40625 1.65625 -1.34375 C 1.769531 -1.28125 1.859375 -1.191406 1.921875 -1.078125 C 1.984375 -0.960938 2.015625 -0.835938 2.015625 -0.703125 C 2.015625 -0.484375 1.941406 -0.300781 1.796875 -0.15625 C 1.660156 -0.0195312 1.472656 0.046875 1.234375 0.046875 Z M 1.234375 0.046875 "/></g></g><g transform="translate(70.356753, 123.482658)"><g><path d="M 1.234375 0.046875 C 1.078125 0.046875 0.941406 0.015625 0.828125 -0.046875 C 0.710938 -0.117188 0.625 -0.207031 0.5625 -0.3125 C 0.5 -0.425781 0.46875 -0.550781 0.46875 -0.6875 C 0.46875 -0.832031 0.5 -0.957031 0.5625 -1.0625 C 0.625 -1.175781 0.710938 -1.265625 0.828125 -1.328125 C 0.941406 -1.398438 1.078125 -1.4375 1.234375 -1.4375 C 1.398438 -1.4375 1.539062 -1.40625 1.65625 -1.34375 C 1.769531 -1.28125 1.859375 -1.191406 1.921875 -1.078125 C 1.984375 -0.960938 2.015625 -0.835938 2.015625 -0.703125 C 2.015625 -0.484375 1.941406 -0.300781 1.796875 -0.15625 C 1.660156 -0.0195312 1.472656 0.046875 1.234375 0.046875 Z M 1.234375 0.046875 "/></g></g><g transform="translate(72.839663, 123.482658)"><g><path d="M 1.890625 0.09375 C 1.578125 0.09375 1.304688 0.0351562 1.078125 -0.078125 C 0.847656 -0.191406 0.671875 -0.359375 0.546875 -0.578125 C 0.429688 -0.804688 0.375 -1.070312 0.375 -1.375 C 0.375 -1.664062 0.429688 -1.90625 0.546875 -2.09375 C 0.671875 -2.289062 0.863281 -2.453125 1.125 -2.578125 C 1.382812 -2.703125 1.722656 -2.800781 2.140625 -2.875 C 2.429688 -2.914062 2.648438 -2.960938 2.796875 -3.015625 C 2.953125 -3.078125 3.054688 -3.140625 3.109375 -3.203125 C 3.160156 -3.273438 3.1875 -3.367188 3.1875 -3.484375 C 3.1875 -3.640625 3.128906 -3.753906 3.015625 -3.828125 C 2.910156 -3.910156 2.734375 -3.953125 2.484375 -3.953125 C 2.210938 -3.953125 1.953125 -3.890625 1.703125 -3.765625 C 1.460938 -3.648438 1.253906 -3.5 1.078125 -3.3125 L 0.984375 -3.3125 L 0.484375 -4.078125 C 0.722656 -4.347656 1.019531 -4.554688 1.375 -4.703125 C 1.726562 -4.859375 2.117188 -4.9375 2.546875 -4.9375 C 3.179688 -4.9375 3.640625 -4.800781 3.921875 -4.53125 C 4.210938 -4.257812 4.359375 -3.875 4.359375 -3.375 L 4.359375 -1.265625 C 4.359375 -1.046875 4.457031 -0.9375 4.65625 -0.9375 C 4.726562 -0.9375 4.796875 -0.953125 4.859375 -0.984375 L 4.921875 -0.96875 L 5.015625 -0.109375 C 4.941406 -0.0664062 4.84375 -0.03125 4.71875 0 C 4.601562 0.0195312 4.476562 0.03125 4.34375 0.03125 C 4.050781 0.03125 3.820312 -0.0195312 3.65625 -0.125 C 3.5 -0.238281 3.382812 -0.414062 3.3125 -0.65625 L 3.21875 -0.65625 C 2.976562 -0.15625 2.535156 0.09375 1.890625 0.09375 Z M 2.28125 -0.8125 C 2.5625 -0.8125 2.785156 -0.90625 2.953125 -1.09375 C 3.117188 -1.289062 3.203125 -1.554688 3.203125 -1.890625 L 3.203125 -2.375 L 3.125 -2.40625 C 3.050781 -2.34375 2.953125 -2.289062 2.828125 -2.25 C 2.710938 -2.207031 2.546875 -2.171875 2.328125 -2.140625 C 2.054688 -2.085938 1.863281 -2.007812 1.75 -1.90625 C 1.632812 -1.800781 1.578125 -1.648438 1.578125 -1.453125 C 1.578125 -1.242188 1.640625 -1.082031 1.765625 -0.96875 C 1.890625 -0.863281 2.0625 -0.8125 2.28125 -0.8125 Z M 2.28125 -0.8125 "/></g></g><g transform="translate(77.950503, 123.482658)"><g><path d="M 0.703125 0 L 0.703125 -4.84375 L 1.875 -4.84375 L 1.875 -4.140625 L 1.953125 -4.109375 C 2.253906 -4.660156 2.742188 -4.9375 3.421875 -4.9375 C 3.984375 -4.9375 4.394531 -4.785156 4.65625 -4.484375 C 4.914062 -4.179688 5.046875 -3.738281 5.046875 -3.15625 L 5.046875 0 L 3.84375 0 L 3.84375 -3 C 3.84375 -3.320312 3.773438 -3.550781 3.640625 -3.6875 C 3.515625 -3.832031 3.3125 -3.90625 3.03125 -3.90625 C 2.675781 -3.90625 2.398438 -3.789062 2.203125 -3.5625 C 2.015625 -3.34375 1.921875 -2.992188 1.921875 -2.515625 L 1.921875 0 Z M 0.703125 0 "/></g></g><g transform="translate(83.628237, 123.482658)"><g><path d="M 2.390625 0.09375 C 2.003906 0.09375 1.664062 0 1.375 -0.1875 C 1.082031 -0.375 0.851562 -0.65625 0.6875 -1.03125 C 0.519531 -1.40625 0.4375 -1.867188 0.4375 -2.421875 C 0.4375 -2.972656 0.519531 -3.4375 0.6875 -3.8125 C 0.863281 -4.1875 1.101562 -4.46875 1.40625 -4.65625 C 1.707031 -4.84375 2.054688 -4.9375 2.453125 -4.9375 C 2.753906 -4.9375 3.015625 -4.882812 3.234375 -4.78125 C 3.460938 -4.675781 3.648438 -4.515625 3.796875 -4.296875 L 3.890625 -4.3125 L 3.890625 -6.796875 L 5.109375 -6.796875 L 5.109375 0 L 3.890625 0 L 3.890625 -0.625 L 3.796875 -0.640625 C 3.660156 -0.410156 3.472656 -0.226562 3.234375 -0.09375 C 3.003906 0.03125 2.722656 0.09375 2.390625 0.09375 Z M 2.796875 -0.9375 C 3.140625 -0.9375 3.410156 -1.054688 3.609375 -1.296875 C 3.804688 -1.546875 3.90625 -1.921875 3.90625 -2.421875 C 3.90625 -2.921875 3.804688 -3.289062 3.609375 -3.53125 C 3.410156 -3.78125 3.140625 -3.90625 2.796875 -3.90625 C 2.429688 -3.90625 2.15625 -3.785156 1.96875 -3.546875 C 1.78125 -3.304688 1.6875 -2.929688 1.6875 -2.421875 C 1.6875 -1.910156 1.78125 -1.535156 1.96875 -1.296875 C 2.15625 -1.054688 2.429688 -0.9375 2.796875 -0.9375 Z M 2.796875 -0.9375 "/></g></g><g transform="translate(89.437807, 123.482658)"><g/></g><g transform="translate(91.560365, 123.482658)"><g><path d="M 1.078125 2.0625 C 0.867188 2.0625 0.675781 2.039062 0.5 2 C 0.332031 1.96875 0.195312 1.925781 0.09375 1.875 L 0.296875 0.890625 L 0.375 0.875 C 0.445312 0.90625 0.535156 0.929688 0.640625 0.953125 C 0.742188 0.984375 0.851562 1 0.96875 1 C 1.164062 1 1.328125 0.972656 1.453125 0.921875 C 1.585938 0.867188 1.703125 0.78125 1.796875 0.65625 C 1.890625 0.539062 1.972656 0.378906 2.046875 0.171875 L 0.109375 -4.84375 L 1.375 -4.84375 L 2.578125 -1.484375 L 2.6875 -1.484375 L 3.859375 -4.84375 L 5.109375 -4.84375 L 3.15625 0.296875 C 3 0.710938 2.828125 1.046875 2.640625 1.296875 C 2.453125 1.554688 2.234375 1.75 1.984375 1.875 C 1.734375 2 1.429688 2.0625 1.078125 2.0625 Z M 1.078125 2.0625 "/></g></g><g transform="translate(96.76349, 123.482658)"><g><path d="M 4.796875 -2.15625 L 1.671875 -2.15625 C 1.710938 -1.726562 1.832031 -1.414062 2.03125 -1.21875 C 2.238281 -1.03125 2.519531 -0.9375 2.875 -0.9375 C 3.15625 -0.9375 3.378906 -0.988281 3.546875 -1.09375 C 3.722656 -1.195312 3.863281 -1.351562 3.96875 -1.5625 L 4.0625 -1.5625 L 4.875 -1.046875 C 4.707031 -0.710938 4.460938 -0.4375 4.140625 -0.21875 C 3.828125 -0.0078125 3.40625 0.09375 2.875 0.09375 C 2.375 0.09375 1.941406 0 1.578125 -0.1875 C 1.210938 -0.382812 0.929688 -0.671875 0.734375 -1.046875 C 0.535156 -1.421875 0.4375 -1.878906 0.4375 -2.421875 C 0.4375 -2.972656 0.539062 -3.4375 0.75 -3.8125 C 0.957031 -4.1875 1.238281 -4.46875 1.59375 -4.65625 C 1.945312 -4.84375 2.34375 -4.9375 2.78125 -4.9375 C 3.46875 -4.9375 3.992188 -4.753906 4.359375 -4.390625 C 4.722656 -4.023438 4.90625 -3.492188 4.90625 -2.796875 C 4.90625 -2.535156 4.894531 -2.335938 4.875 -2.203125 Z M 3.75 -2.9375 C 3.738281 -3.300781 3.648438 -3.566406 3.484375 -3.734375 C 3.328125 -3.910156 3.09375 -4 2.78125 -4 C 2.164062 -4 1.804688 -3.644531 1.703125 -2.9375 Z M 3.75 -2.9375 "/></g></g><g transform="translate(102.032532, 123.482658)"><g><path d="M 2.265625 0.09375 C 1.929688 0.09375 1.625 0.0546875 1.34375 -0.015625 C 1.070312 -0.0976562 0.835938 -0.207031 0.640625 -0.34375 C 0.453125 -0.476562 0.3125 -0.632812 0.21875 -0.8125 L 0.890625 -1.546875 L 0.984375 -1.546875 C 1.148438 -1.328125 1.34375 -1.160156 1.5625 -1.046875 C 1.78125 -0.941406 2.019531 -0.890625 2.28125 -0.890625 C 2.507812 -0.890625 2.6875 -0.929688 2.8125 -1.015625 C 2.9375 -1.097656 3 -1.222656 3 -1.390625 C 3 -1.503906 2.953125 -1.601562 2.859375 -1.6875 C 2.773438 -1.769531 2.632812 -1.835938 2.4375 -1.890625 L 1.796875 -2.046875 C 1.316406 -2.160156 0.96875 -2.332031 0.75 -2.5625 C 0.53125 -2.800781 0.421875 -3.101562 0.421875 -3.46875 C 0.421875 -3.769531 0.492188 -4.03125 0.640625 -4.25 C 0.796875 -4.476562 1.015625 -4.648438 1.296875 -4.765625 C 1.578125 -4.878906 1.90625 -4.9375 2.28125 -4.9375 C 2.71875 -4.9375 3.078125 -4.875 3.359375 -4.75 C 3.648438 -4.625 3.875 -4.457031 4.03125 -4.25 L 3.390625 -3.546875 L 3.296875 -3.546875 C 3.160156 -3.691406 3.007812 -3.800781 2.84375 -3.875 C 2.675781 -3.945312 2.488281 -3.984375 2.28125 -3.984375 C 1.800781 -3.984375 1.5625 -3.832031 1.5625 -3.53125 C 1.5625 -3.40625 1.601562 -3.300781 1.6875 -3.21875 C 1.78125 -3.144531 1.9375 -3.082031 2.15625 -3.03125 L 2.765625 -2.90625 C 3.253906 -2.800781 3.609375 -2.628906 3.828125 -2.390625 C 4.054688 -2.160156 4.171875 -1.847656 4.171875 -1.453125 C 4.171875 -1.148438 4.09375 -0.878906 3.9375 -0.640625 C 3.789062 -0.410156 3.570312 -0.226562 3.28125 -0.09375 C 3 0.03125 2.660156 0.09375 2.265625 0.09375 Z M 2.265625 0.09375 "/></g></g><g transform="translate(106.50177, 123.482658)"><g><path d="M 0.171875 1.296875 C 0.429688 1.140625 0.660156 0.945312 0.859375 0.71875 C 1.066406 0.488281 1.179688 0.257812 1.203125 0.03125 C 0.972656 0.03125 0.789062 -0.0351562 0.65625 -0.171875 C 0.53125 -0.304688 0.46875 -0.484375 0.46875 -0.703125 C 0.46875 -0.835938 0.5 -0.960938 0.5625 -1.078125 C 0.625 -1.191406 0.710938 -1.28125 0.828125 -1.34375 C 0.941406 -1.40625 1.078125 -1.4375 1.234375 -1.4375 C 1.472656 -1.4375 1.664062 -1.351562 1.8125 -1.1875 C 1.96875 -1.03125 2.046875 -0.800781 2.046875 -0.5 C 2.046875 0.0195312 1.910156 0.472656 1.640625 0.859375 C 1.378906 1.253906 1.023438 1.582031 0.578125 1.84375 Z M 0.171875 1.296875 "/></g></g><g transform="translate(109.002258, 123.482658)"><g/></g><g transform="translate(111.124817, 123.482658)"><g><path d="M 2.109375 0 L 0.828125 0 L 0.828125 -6.421875 L 2.109375 -6.421875 Z M 2.109375 0 "/></g></g><g transform="translate(114.069152, 123.482658)"><g/></g><g transform="translate(116.191711, 123.482658)"><g><path d="M 0.703125 0 L 0.703125 -6.796875 L 1.921875 -6.796875 L 1.921875 -3.03125 L 2.03125 -3.03125 L 3.4375 -4.84375 L 4.671875 -4.84375 L 4.671875 -4.75 L 3.03125 -2.625 L 4.859375 -0.109375 L 4.859375 0 L 3.578125 0 L 2.03125 -2.046875 L 1.921875 -2.046875 L 1.921875 0 Z M 0.703125 0 "/></g></g><g transform="translate(121.056457, 123.482658)"><g><path d="M 0.703125 0 L 0.703125 -4.84375 L 1.875 -4.84375 L 1.875 -4.140625 L 1.953125 -4.109375 C 2.253906 -4.660156 2.742188 -4.9375 3.421875 -4.9375 C 3.984375 -4.9375 4.394531 -4.785156 4.65625 -4.484375 C 4.914062 -4.179688 5.046875 -3.738281 5.046875 -3.15625 L 5.046875 0 L 3.84375 0 L 3.84375 -3 C 3.84375 -3.320312 3.773438 -3.550781 3.640625 -3.6875 C 3.515625 -3.832031 3.3125 -3.90625 3.03125 -3.90625 C 2.675781 -3.90625 2.398438 -3.789062 2.203125 -3.5625 C 2.015625 -3.34375 1.921875 -2.992188 1.921875 -2.515625 L 1.921875 0 Z M 0.703125 0 "/></g></g><g transform="translate(126.734191, 123.482658)"><g><path d="M 2.8125 0.09375 C 2.34375 0.09375 1.925781 -0.00390625 1.5625 -0.203125 C 1.207031 -0.398438 0.929688 -0.6875 0.734375 -1.0625 C 0.535156 -1.4375 0.4375 -1.890625 0.4375 -2.421875 C 0.4375 -2.953125 0.535156 -3.40625 0.734375 -3.78125 C 0.929688 -4.164062 1.207031 -4.453125 1.5625 -4.640625 C 1.925781 -4.835938 2.34375 -4.9375 2.8125 -4.9375 C 3.289062 -4.9375 3.707031 -4.835938 4.0625 -4.640625 C 4.425781 -4.453125 4.707031 -4.164062 4.90625 -3.78125 C 5.101562 -3.40625 5.203125 -2.953125 5.203125 -2.421875 C 5.203125 -1.890625 5.101562 -1.4375 4.90625 -1.0625 C 4.707031 -0.6875 4.425781 -0.398438 4.0625 -0.203125 C 3.707031 -0.00390625 3.289062 0.09375 2.8125 0.09375 Z M 2.8125 -0.9375 C 3.570312 -0.9375 3.953125 -1.429688 3.953125 -2.421875 C 3.953125 -2.929688 3.851562 -3.304688 3.65625 -3.546875 C 3.457031 -3.785156 3.175781 -3.90625 2.8125 -3.90625 C 2.0625 -3.90625 1.6875 -3.410156 1.6875 -2.421875 C 1.6875 -1.429688 2.0625 -0.9375 2.8125 -0.9375 Z M 2.8125 -0.9375 "/></g></g><g transform="translate(132.367979, 123.482658)"><g><path d="M 2.609375 0 L 1.328125 0 L 0.171875 -4.84375 L 1.3125 -4.84375 L 2.015625 -1.5625 L 2.109375 -1.5625 L 3.03125 -4.84375 L 4.09375 -4.84375 L 5.046875 -1.5625 L 5.140625 -1.5625 L 5.8125 -4.84375 L 6.921875 -4.84375 L 5.78125 0 L 4.5 0 L 3.578125 -3.296875 L 3.484375 -3.296875 Z M 2.609375 0 "/></g></g><g transform="translate(139.456358, 123.482658)"><g/></g><g transform="translate(141.578916, 123.482658)"><g><path d="M 2.609375 0 L 1.328125 0 L 0.171875 -4.84375 L 1.3125 -4.84375 L 2.015625 -1.5625 L 2.109375 -1.5625 L 3.03125 -4.84375 L 4.09375 -4.84375 L 5.046875 -1.5625 L 5.140625 -1.5625 L 5.8125 -4.84375 L 6.921875 -4.84375 L 5.78125 0 L 4.5 0 L 3.578125 -3.296875 L 3.484375 -3.296875 Z M 2.609375 0 "/></g></g><g transform="translate(148.667295, 123.482658)"><g><path d="M 0.703125 0 L 0.703125 -6.796875 L 1.921875 -6.796875 L 1.921875 -4.21875 L 2.015625 -4.203125 C 2.171875 -4.429688 2.363281 -4.609375 2.59375 -4.734375 C 2.832031 -4.867188 3.117188 -4.9375 3.453125 -4.9375 C 4.515625 -4.9375 5.046875 -4.332031 5.046875 -3.125 L 5.046875 0 L 3.84375 0 L 3.84375 -2.96875 C 3.84375 -3.300781 3.773438 -3.539062 3.640625 -3.6875 C 3.503906 -3.832031 3.300781 -3.90625 3.03125 -3.90625 C 2.6875 -3.90625 2.414062 -3.789062 2.21875 -3.5625 C 2.019531 -3.34375 1.921875 -2.992188 1.921875 -2.515625 L 1.921875 0 Z M 0.703125 0 "/></g></g><g transform="translate(154.345029, 123.482658)"><g><path d="M 1.890625 0.09375 C 1.578125 0.09375 1.304688 0.0351562 1.078125 -0.078125 C 0.847656 -0.191406 0.671875 -0.359375 0.546875 -0.578125 C 0.429688 -0.804688 0.375 -1.070312 0.375 -1.375 C 0.375 -1.664062 0.429688 -1.90625 0.546875 -2.09375 C 0.671875 -2.289062 0.863281 -2.453125 1.125 -2.578125 C 1.382812 -2.703125 1.722656 -2.800781 2.140625 -2.875 C 2.429688 -2.914062 2.648438 -2.960938 2.796875 -3.015625 C 2.953125 -3.078125 3.054688 -3.140625 3.109375 -3.203125 C 3.160156 -3.273438 3.1875 -3.367188 3.1875 -3.484375 C 3.1875 -3.640625 3.128906 -3.753906 3.015625 -3.828125 C 2.910156 -3.910156 2.734375 -3.953125 2.484375 -3.953125 C 2.210938 -3.953125 1.953125 -3.890625 1.703125 -3.765625 C 1.460938 -3.648438 1.253906 -3.5 1.078125 -3.3125 L 0.984375 -3.3125 L 0.484375 -4.078125 C 0.722656 -4.347656 1.019531 -4.554688 1.375 -4.703125 C 1.726562 -4.859375 2.117188 -4.9375 2.546875 -4.9375 C 3.179688 -4.9375 3.640625 -4.800781 3.921875 -4.53125 C 4.210938 -4.257812 4.359375 -3.875 4.359375 -3.375 L 4.359375 -1.265625 C 4.359375 -1.046875 4.457031 -0.9375 4.65625 -0.9375 C 4.726562 -0.9375 4.796875 -0.953125 4.859375 -0.984375 L 4.921875 -0.96875 L 5.015625 -0.109375 C 4.941406 -0.0664062 4.84375 -0.03125 4.71875 0 C 4.601562 0.0195312 4.476562 0.03125 4.34375 0.03125 C 4.050781 0.03125 3.820312 -0.0195312 3.65625 -0.125 C 3.5 -0.238281 3.382812 -0.414062 3.3125 -0.65625 L 3.21875 -0.65625 C 2.976562 -0.15625 2.535156 0.09375 1.890625 0.09375 Z M 2.28125 -0.8125 C 2.5625 -0.8125 2.785156 -0.90625 2.953125 -1.09375 C 3.117188 -1.289062 3.203125 -1.554688 3.203125 -1.890625 L 3.203125 -2.375 L 3.125 -2.40625 C 3.050781 -2.34375 2.953125 -2.289062 2.828125 -2.25 C 2.710938 -2.207031 2.546875 -2.171875 2.328125 -2.140625 C 2.054688 -2.085938 1.863281 -2.007812 1.75 -1.90625 C 1.632812 -1.800781 1.578125 -1.648438 1.578125 -1.453125 C 1.578125 -1.242188 1.640625 -1.082031 1.765625 -0.96875 C 1.890625 -0.863281 2.0625 -0.8125 2.28125 -0.8125 Z M 2.28125 -0.8125 "/></g></g><g transform="translate(159.455868, 123.482658)"><g><path d="M 3.34375 -1.15625 L 3.65625 -0.25 C 3.53125 -0.144531 3.363281 -0.0625 3.15625 0 C 2.957031 0.0625 2.734375 0.09375 2.484375 0.09375 C 1.960938 0.09375 1.566406 -0.046875 1.296875 -0.328125 C 1.023438 -0.617188 0.890625 -1.035156 0.890625 -1.578125 L 0.890625 -3.890625 L 0.140625 -3.890625 L 0.140625 -4.859375 L 0.890625 -4.859375 L 0.890625 -5.796875 L 2.09375 -6 L 2.09375 -4.859375 L 3.46875 -4.859375 L 3.46875 -3.890625 L 2.09375 -3.890625 L 2.09375 -1.671875 C 2.09375 -1.429688 2.144531 -1.253906 2.25 -1.140625 C 2.351562 -1.035156 2.5 -0.984375 2.6875 -0.984375 C 2.90625 -0.984375 3.09375 -1.039062 3.25 -1.15625 Z M 3.34375 -1.15625 "/></g></g><g transform="translate(163.221981, 123.482658)"><g/></g><g transform="translate(165.34454, 123.482658)"><g><path d="M 2.109375 0 L 0.828125 0 L 0.828125 -6.421875 L 2.109375 -6.421875 Z M 2.109375 0 "/></g></g><g transform="translate(168.288875, 123.482658)"><g/></g><g transform="translate(170.411434, 123.482658)"><g><path d="M 2.015625 0.09375 C 1.578125 0.09375 1.242188 -0.0195312 1.015625 -0.25 C 0.785156 -0.488281 0.671875 -0.851562 0.671875 -1.34375 L 0.671875 -6.796875 L 1.890625 -6.796875 L 1.890625 -1.390625 C 1.890625 -1.085938 2.007812 -0.9375 2.25 -0.9375 C 2.320312 -0.9375 2.398438 -0.945312 2.484375 -0.96875 L 2.546875 -0.953125 L 2.65625 -0.015625 C 2.582031 0.015625 2.488281 0.0390625 2.375 0.0625 C 2.269531 0.0820312 2.148438 0.09375 2.015625 0.09375 Z M 2.015625 0.09375 "/></g></g><g transform="translate(173.197567, 123.482658)"><g><path d="M 2.8125 0.09375 C 2.34375 0.09375 1.925781 -0.00390625 1.5625 -0.203125 C 1.207031 -0.398438 0.929688 -0.6875 0.734375 -1.0625 C 0.535156 -1.4375 0.4375 -1.890625 0.4375 -2.421875 C 0.4375 -2.953125 0.535156 -3.40625 0.734375 -3.78125 C 0.929688 -4.164062 1.207031 -4.453125 1.5625 -4.640625 C 1.925781 -4.835938 2.34375 -4.9375 2.8125 -4.9375 C 3.289062 -4.9375 3.707031 -4.835938 4.0625 -4.640625 C 4.425781 -4.453125 4.707031 -4.164062 4.90625 -3.78125 C 5.101562 -3.40625 5.203125 -2.953125 5.203125 -2.421875 C 5.203125 -1.890625 5.101562 -1.4375 4.90625 -1.0625 C 4.707031 -0.6875 4.425781 -0.398438 4.0625 -0.203125 C 3.707031 -0.00390625 3.289062 0.09375 2.8125 0.09375 Z M 2.8125 -0.9375 C 3.570312 -0.9375 3.953125 -1.429688 3.953125 -2.421875 C 3.953125 -2.929688 3.851562 -3.304688 3.65625 -3.546875 C 3.457031 -3.785156 3.175781 -3.90625 2.8125 -3.90625 C 2.0625 -3.90625 1.6875 -3.410156 1.6875 -2.421875 C 1.6875 -1.429688 2.0625 -0.9375 2.8125 -0.9375 Z M 2.8125 -0.9375 "/></g></g><g transform="translate(178.831355, 123.482658)"><g><path d="M 2.8125 0.09375 C 2.34375 0.09375 1.925781 -0.00390625 1.5625 -0.203125 C 1.207031 -0.398438 0.929688 -0.6875 0.734375 -1.0625 C 0.535156 -1.4375 0.4375 -1.890625 0.4375 -2.421875 C 0.4375 -2.953125 0.535156 -3.40625 0.734375 -3.78125 C 0.929688 -4.164062 1.207031 -4.453125 1.5625 -4.640625 C 1.925781 -4.835938 2.34375 -4.9375 2.8125 -4.9375 C 3.289062 -4.9375 3.707031 -4.835938 4.0625 -4.640625 C 4.425781 -4.453125 4.707031 -4.164062 4.90625 -3.78125 C 5.101562 -3.40625 5.203125 -2.953125 5.203125 -2.421875 C 5.203125 -1.890625 5.101562 -1.4375 4.90625 -1.0625 C 4.707031 -0.6875 4.425781 -0.398438 4.0625 -0.203125 C 3.707031 -0.00390625 3.289062 0.09375 2.8125 0.09375 Z M 2.8125 -0.9375 C 3.570312 -0.9375 3.953125 -1.429688 3.953125 -2.421875 C 3.953125 -2.929688 3.851562 -3.304688 3.65625 -3.546875 C 3.457031 -3.785156 3.175781 -3.90625 2.8125 -3.90625 C 2.0625 -3.90625 1.6875 -3.410156 1.6875 -2.421875 C 1.6875 -1.429688 2.0625 -0.9375 2.8125 -0.9375 Z M 2.8125 -0.9375 "/></g></g><g transform="translate(184.465144, 123.482658)"><g><path d="M 0.703125 0 L 0.703125 -6.796875 L 1.921875 -6.796875 L 1.921875 -3.03125 L 2.03125 -3.03125 L 3.4375 -4.84375 L 4.671875 -4.84375 L 4.671875 -4.75 L 3.03125 -2.625 L 4.859375 -0.109375 L 4.859375 0 L 3.578125 0 L 2.03125 -2.046875 L 1.921875 -2.046875 L 1.921875 0 Z M 0.703125 0 "/></g></g><g transform="translate(189.32989, 123.482658)"><g/></g><g transform="translate(191.452448, 123.482658)"><g><path d="M 2.015625 0.09375 C 1.578125 0.09375 1.242188 -0.0195312 1.015625 -0.25 C 0.785156 -0.488281 0.671875 -0.851562 0.671875 -1.34375 L 0.671875 -6.796875 L 1.890625 -6.796875 L 1.890625 -1.390625 C 1.890625 -1.085938 2.007812 -0.9375 2.25 -0.9375 C 2.320312 -0.9375 2.398438 -0.945312 2.484375 -0.96875 L 2.546875 -0.953125 L 2.65625 -0.015625 C 2.582031 0.015625 2.488281 0.0390625 2.375 0.0625 C 2.269531 0.0820312 2.148438 0.09375 2.015625 0.09375 Z M 2.015625 0.09375 "/></g></g><g transform="translate(194.238581, 123.482658)"><g><path d="M 1.3125 -5.421875 C 1.082031 -5.421875 0.898438 -5.488281 0.765625 -5.625 C 0.628906 -5.757812 0.5625 -5.929688 0.5625 -6.140625 C 0.5625 -6.347656 0.628906 -6.519531 0.765625 -6.65625 C 0.898438 -6.789062 1.082031 -6.859375 1.3125 -6.859375 C 1.457031 -6.859375 1.585938 -6.828125 1.703125 -6.765625 C 1.816406 -6.703125 1.90625 -6.613281 1.96875 -6.5 C 2.03125 -6.394531 2.0625 -6.273438 2.0625 -6.140625 C 2.0625 -6.003906 2.03125 -5.878906 1.96875 -5.765625 C 1.90625 -5.660156 1.816406 -5.578125 1.703125 -5.515625 C 1.585938 -5.453125 1.457031 -5.421875 1.3125 -5.421875 Z M 0.703125 0 L 0.703125 -4.84375 L 1.921875 -4.84375 L 1.921875 0 Z M 0.703125 0 "/></g></g><g transform="translate(196.848932, 123.482658)"><g><path d="M 0.703125 0 L 0.703125 -6.796875 L 1.921875 -6.796875 L 1.921875 -3.03125 L 2.03125 -3.03125 L 3.4375 -4.84375 L 4.671875 -4.84375 L 4.671875 -4.75 L 3.03125 -2.625 L 4.859375 -0.109375 L 4.859375 0 L 3.578125 0 L 2.03125 -2.046875 L 1.921875 -2.046875 L 1.921875 0 Z M 0.703125 0 "/></g></g><g transform="translate(201.713678, 123.482658)"><g><path d="M 4.796875 -2.15625 L 1.671875 -2.15625 C 1.710938 -1.726562 1.832031 -1.414062 2.03125 -1.21875 C 2.238281 -1.03125 2.519531 -0.9375 2.875 -0.9375 C 3.15625 -0.9375 3.378906 -0.988281 3.546875 -1.09375 C 3.722656 -1.195312 3.863281 -1.351562 3.96875 -1.5625 L 4.0625 -1.5625 L 4.875 -1.046875 C 4.707031 -0.710938 4.460938 -0.4375 4.140625 -0.21875 C 3.828125 -0.0078125 3.40625 0.09375 2.875 0.09375 C 2.375 0.09375 1.941406 0 1.578125 -0.1875 C 1.210938 -0.382812 0.929688 -0.671875 0.734375 -1.046875 C 0.535156 -1.421875 0.4375 -1.878906 0.4375 -2.421875 C 0.4375 -2.972656 0.539062 -3.4375 0.75 -3.8125 C 0.957031 -4.1875 1.238281 -4.46875 1.59375 -4.65625 C 1.945312 -4.84375 2.34375 -4.9375 2.78125 -4.9375 C 3.46875 -4.9375 3.992188 -4.753906 4.359375 -4.390625 C 4.722656 -4.023438 4.90625 -3.492188 4.90625 -2.796875 C 4.90625 -2.535156 4.894531 -2.335938 4.875 -2.203125 Z M 3.75 -2.9375 C 3.738281 -3.300781 3.648438 -3.566406 3.484375 -3.734375 C 3.328125 -3.910156 3.09375 -4 2.78125 -4 C 2.164062 -4 1.804688 -3.644531 1.703125 -2.9375 Z M 3.75 -2.9375 "/></g></g></g></svg>