<svg xmlns="http://www.w3.org/2000/svg" xmlns:xlink="http://www.w3.org/1999/xlink" width="1000" zoomAndPan="magnify" viewBox="0 0 750 374.999991" height="500" preserveAspectRatio="xMidYMid meet" version="1.0"><defs><g/><clipPath id="e122f07ae2"><path d="M 298 40 L 633.878906 40 L 633.878906 186 L 298 186 Z M 298 40 " clip-rule="nonzero"/></clipPath><clipPath id="4e87124876"><path d="M 116.378906 37.5 L 304 37.5 L 304 187.5 L 116.378906 187.5 Z M 116.378906 37.5 " clip-rule="nonzero"/></clipPath></defs><g clip-path="url(#e122f07ae2)"><path fill="#c6ab7c" d="M 633.878906 185.167969 L 451.082031 40.140625 L 298.304688 40.140625 L 481.101562 185.167969 Z M 633.878906 185.167969 " fill-opacity="1" fill-rule="nonzero"/></g><g clip-path="url(#4e87124876)"><path fill="#c6ab7c" d="M 118.953125 187.433594 C 118.292969 187.433594 117.632812 187.144531 117.175781 186.574219 C 116.398438 185.59375 116.566406 184.175781 117.539062 183.402344 L 300.332031 38.375 C 301.316406 37.597656 302.742188 37.761719 303.507812 38.734375 C 304.285156 39.71875 304.121094 41.132812 303.148438 41.910156 L 120.363281 186.9375 C 119.949219 187.277344 119.453125 187.433594 118.953125 187.433594 Z M 118.953125 187.433594 " fill-opacity="1" fill-rule="nonzero"/></g><path fill="#c6ab7c" d="M 261.265625 149.492188 L 291.480469 149.492188 L 291.480469 179.6875 L 261.265625 179.6875 Z M 261.265625 149.492188 " fill-opacity="1" fill-rule="nonzero"/><path fill="#c6ab7c" d="M 305.132812 149.492188 L 335.347656 149.492188 L 335.347656 179.6875 L 305.132812 179.6875 Z M 305.132812 149.492188 " fill-opacity="1" fill-rule="nonzero"/><path fill="#c6ab7c" d="M 261.265625 107.628906 L 291.480469 107.628906 L 291.480469 137.828125 L 261.265625 137.828125 Z M 261.265625 107.628906 " fill-opacity="1" fill-rule="nonzero"/><path fill="#c6ab7c" d="M 305.132812 107.628906 L 335.347656 107.628906 L 335.347656 137.828125 L 305.132812 137.828125 Z M 305.132812 107.628906 " fill-opacity="1" fill-rule="nonzero"/><path fill="#c6ab7c" d="M 217.191406 107.628906 L 186.976562 130.550781 L 186.976562 61.40625 L 217.191406 61.40625 Z M 217.191406 107.628906 " fill-opacity="1" fill-rule="nonzero"/><g fill="#c6ab7c" fill-opacity="1"><g transform="translate(113.678944, 276.657001)"><g><path d="M 5.5 0 L 8.730469 0 L 8.730469 -17.875 L 27.84375 -17.875 C 37.121094 -17.875 43.792969 -24.542969 43.792969 -33.136719 C 43.792969 -41.660156 37.121094 -48.121094 27.84375 -48.121094 L 5.5 -48.121094 Z M 8.730469 -20.828125 L 8.730469 -45.027344 L 27.5 -45.027344 C 35.199219 -45.027344 40.628906 -39.941406 40.628906 -33.066406 C 40.628906 -26.328125 35.199219 -20.828125 27.5 -20.828125 Z M 8.730469 -20.828125 "/></g></g></g><g fill="#c6ab7c" fill-opacity="1"><g transform="translate(165.366235, 276.657001)"><g><path d="M 0.824219 0 L 4.46875 0 L 8.9375 -9.898438 L 39.460938 -9.898438 L 43.996094 0 L 47.570312 0 L 24.679688 -48.878906 L 23.71875 -48.878906 Z M 10.242188 -12.582031 L 23.992188 -42.621094 L 24.40625 -42.621094 L 38.222656 -12.582031 Z M 10.242188 -12.582031 "/></g></g></g><g fill="#c6ab7c" fill-opacity="1"><g transform="translate(219.321618, 276.657001)"><g><path d="M 5.5 0 L 8.660156 0 L 8.660156 -20.554688 L 25.710938 -20.625 L 38.773438 0 L 42.277344 0 L 29.011719 -20.828125 C 36.574219 -22 41.867188 -27.359375 41.867188 -34.578125 C 41.867188 -42.761719 35.199219 -48.121094 25.984375 -48.121094 L 5.5 -48.121094 Z M 8.660156 -23.234375 L 8.660156 -45.097656 L 25.574219 -45.097656 C 33.136719 -45.097656 38.636719 -40.902344 38.636719 -34.304688 C 38.636719 -27.703125 33.136719 -23.234375 25.574219 -23.234375 Z M 8.660156 -23.234375 "/></g></g></g><g fill="#c6ab7c" fill-opacity="1"><g transform="translate(270.459058, 276.657001)"><g><path d="M 19.796875 0 L 23.03125 0 L 23.03125 -45.097656 L 40.628906 -45.097656 L 40.628906 -48.121094 L 2.199219 -48.121094 L 2.199219 -45.097656 L 19.796875 -45.097656 Z M 19.796875 0 "/></g></g></g><g fill="#c6ab7c" fill-opacity="1"><g transform="translate(318.847285, 276.657001)"><g><path d="M 22.34375 0.824219 C 33.203125 0.824219 39.804688 -4.675781 39.804688 -12.511719 C 39.804688 -19.453125 35.199219 -23.234375 22.824219 -25.78125 C 11.960938 -28.046875 8.179688 -30.9375 8.179688 -36.160156 C 8.179688 -41.316406 13.0625 -45.921875 21.515625 -45.921875 C 28.460938 -45.921875 33.824219 -43.929688 37.121094 -42.074219 L 37.121094 -45.371094 C 33.683594 -47.160156 28.324219 -48.878906 21.722656 -48.878906 C 11.753906 -48.878906 4.882812 -43.308594 4.882812 -36.089844 C 4.882812 -28.804688 9.898438 -25.296875 21.722656 -22.890625 C 32.996094 -20.554688 36.503906 -17.597656 36.503906 -12.304688 C 36.503906 -6.324219 30.796875 -2.0625 22.546875 -2.0625 C 16.910156 -2.0625 9.28125 -3.644531 3.710938 -7.082031 L 2.957031 -4.054688 C 8.042969 -1.101562 16.84375 0.824219 22.34375 0.824219 Z M 22.34375 0.824219 "/></g></g></g><g fill="#c6ab7c" fill-opacity="1"><g transform="translate(367.716619, 276.657001)"><g><path d="M 5.5 0 L 8.660156 0 L 8.660156 -22.136719 L 42.554688 -22.136719 L 42.554688 0 L 45.714844 0 L 45.714844 -48.121094 L 42.554688 -48.121094 L 42.554688 -25.230469 L 8.660156 -25.230469 L 8.660156 -48.121094 L 5.5 -48.121094 Z M 5.5 0 "/></g></g></g><g fill="#c6ab7c" fill-opacity="1"><g transform="translate(424.421223, 276.657001)"><g><path d="M 27.773438 0.824219 C 41.660156 0.824219 51.835938 -9.488281 51.835938 -23.992188 C 51.835938 -38.496094 41.660156 -48.878906 27.773438 -48.878906 C 13.957031 -48.878906 3.78125 -38.496094 3.78125 -23.992188 C 3.78125 -9.488281 13.957031 0.824219 27.773438 0.824219 Z M 27.773438 -2.199219 C 15.742188 -2.199219 6.941406 -11.273438 6.941406 -23.992188 C 6.941406 -36.710938 15.742188 -45.851562 27.773438 -45.851562 C 39.871094 -45.851562 48.671875 -36.710938 48.671875 -23.992188 C 48.671875 -11.273438 39.871094 -2.199219 27.773438 -2.199219 Z M 27.773438 -2.199219 "/></g></g></g><g fill="#c6ab7c" fill-opacity="1"><g transform="translate(485.593291, 276.657001)"><g><path d="M 25.574219 0.824219 C 37.191406 0.824219 45.714844 -6.394531 45.714844 -18.148438 L 45.714844 -48.121094 L 42.484375 -48.121094 L 42.484375 -18.148438 C 42.484375 -8.113281 35.335938 -2.199219 25.574219 -2.199219 C 15.8125 -2.199219 8.730469 -8.113281 8.730469 -18.148438 L 8.730469 -48.121094 L 5.5 -48.121094 L 5.5 -18.148438 C 5.5 -6.394531 14.023438 0.824219 25.574219 0.824219 Z M 25.574219 0.824219 "/></g></g></g><g fill="#c6ab7c" fill-opacity="1"><g transform="translate(542.366616, 276.657001)"><g><path d="M 22.34375 0.824219 C 33.203125 0.824219 39.804688 -4.675781 39.804688 -12.511719 C 39.804688 -19.453125 35.199219 -23.234375 22.824219 -25.78125 C 11.960938 -28.046875 8.179688 -30.9375 8.179688 -36.160156 C 8.179688 -41.316406 13.0625 -45.921875 21.515625 -45.921875 C 28.460938 -45.921875 33.824219 -43.929688 37.121094 -42.074219 L 37.121094 -45.371094 C 33.683594 -47.160156 28.324219 -48.878906 21.722656 -48.878906 C 11.753906 -48.878906 4.882812 -43.308594 4.882812 -36.089844 C 4.882812 -28.804688 9.898438 -25.296875 21.722656 -22.890625 C 32.996094 -20.554688 36.503906 -17.597656 36.503906 -12.304688 C 36.503906 -6.324219 30.796875 -2.0625 22.546875 -2.0625 C 16.910156 -2.0625 9.28125 -3.644531 3.710938 -7.082031 L 2.957031 -4.054688 C 8.042969 -1.101562 16.84375 0.824219 22.34375 0.824219 Z M 22.34375 0.824219 "/></g></g></g><g fill="#c6ab7c" fill-opacity="1"><g transform="translate(591.23595, 276.657001)"><g><path d="M 5.5 0 L 41.316406 0 L 41.316406 -3.023438 L 8.660156 -3.023438 L 8.660156 -23.167969 L 35.746094 -23.167969 L 35.746094 -25.917969 L 8.660156 -25.917969 L 8.660156 -45.097656 L 40.492188 -45.097656 L 40.492188 -48.121094 L 5.5 -48.121094 Z M 5.5 0 "/></g></g></g><g fill="#c6ab7c" fill-opacity="1"><g transform="translate(262.838169, 334.707617)"><g><path d="M 2.535156 0 L 2.535156 -3.648438 L 4.75 -3.648438 C 6.460938 -3.648438 7.648438 -4.679688 7.648438 -6.4375 C 7.648438 -8.328125 6.460938 -9.132812 4.75 -9.132812 L 0.8125 -9.132812 L 0.8125 0 Z M 2.535156 -7.585938 L 4.511719 -7.585938 C 5.421875 -7.585938 5.9375 -7.15625 5.9375 -6.378906 C 5.9375 -5.578125 5.433594 -5.15625 4.511719 -5.15625 L 2.535156 -5.15625 Z M 2.535156 -7.585938 "/></g></g></g><g fill="#c6ab7c" fill-opacity="1"><g transform="translate(276.792006, 334.707617)"><g><path d="M 1.890625 0 L 2.5 -1.878906 L 5.984375 -1.878906 L 6.605469 0 L 8.414062 0 L 5.195312 -9.132812 L 3.304688 -9.132812 L 0.0820312 0 Z M 4.25 -7.253906 L 5.503906 -3.386719 L 2.992188 -3.386719 Z M 4.25 -7.253906 "/></g></g></g><g fill="#c6ab7c" fill-opacity="1"><g transform="translate(291.272417, 334.707617)"><g><path d="M 6.210938 -3.960938 C 7.097656 -4.378906 7.648438 -5.242188 7.648438 -6.4375 C 7.648438 -8.328125 6.460938 -9.132812 4.75 -9.132812 L 0.8125 -9.132812 L 0.8125 0 L 2.535156 0 L 2.535156 -3.648438 L 4.570312 -3.648438 L 6.019531 0 L 7.851562 0 Z M 4.511719 -7.585938 C 5.421875 -7.585938 5.9375 -7.15625 5.9375 -6.378906 C 5.9375 -5.578125 5.433594 -5.15625 4.511719 -5.15625 L 2.535156 -5.15625 L 2.535156 -7.585938 Z M 4.511719 -7.585938 "/></g></g></g><g fill="#c6ab7c" fill-opacity="1"><g transform="translate(305.501502, 334.707617)"><g><path d="M 4.632812 0 L 4.632812 -7.585938 L 7.40625 -7.585938 L 7.40625 -9.132812 L 0.121094 -9.132812 L 0.121094 -7.585938 L 2.90625 -7.585938 L 2.90625 0 Z M 4.632812 0 "/></g></g></g><g fill="#c6ab7c" fill-opacity="1"><g transform="translate(319.024528, 334.707617)"><g><path d="M 4.441406 0.167969 C 6.59375 0.167969 7.851562 -0.921875 7.851562 -2.644531 C 7.851562 -4.714844 6.042969 -5.121094 4.523438 -5.457031 C 3.410156 -5.707031 2.429688 -5.921875 2.429688 -6.761719 C 2.429688 -7.457031 3.050781 -7.828125 3.914062 -7.828125 C 4.847656 -7.828125 5.625 -7.382812 5.851562 -6.414062 L 7.609375 -6.414062 C 7.324219 -8.390625 5.707031 -9.296875 3.949219 -9.296875 C 2.105469 -9.296875 0.71875 -8.378906 0.71875 -6.617188 C 0.71875 -4.691406 2.417969 -4.320312 3.914062 -3.984375 C 5.074219 -3.734375 6.117188 -3.507812 6.117188 -2.5625 C 6.117188 -1.6875 5.398438 -1.304688 4.453125 -1.304688 C 3.496094 -1.304688 2.5 -1.664062 2.203125 -2.96875 L 0.417969 -2.96875 C 0.644531 -0.609375 2.679688 0.167969 4.441406 0.167969 Z M 4.441406 0.167969 "/></g></g></g><g fill="#c6ab7c" fill-opacity="1"><g transform="translate(333.337398, 334.707617)"><g/></g></g><g fill="#c6ab7c" fill-opacity="1"><g transform="translate(342.528248, 334.707617)"><g><path d="M 4.632812 0 L 4.632812 -7.585938 L 7.40625 -7.585938 L 7.40625 -9.132812 L 0.121094 -9.132812 L 0.121094 -7.585938 L 2.90625 -7.585938 L 2.90625 0 Z M 4.632812 0 "/></g></g></g><g fill="#c6ab7c" fill-opacity="1"><g transform="translate(356.051274, 334.707617)"><g><path d="M 6.210938 -3.960938 C 7.097656 -4.378906 7.648438 -5.242188 7.648438 -6.4375 C 7.648438 -8.328125 6.460938 -9.132812 4.75 -9.132812 L 0.8125 -9.132812 L 0.8125 0 L 2.535156 0 L 2.535156 -3.648438 L 4.570312 -3.648438 L 6.019531 0 L 7.851562 0 Z M 4.511719 -7.585938 C 5.421875 -7.585938 5.9375 -7.15625 5.9375 -6.378906 C 5.9375 -5.578125 5.433594 -5.15625 4.511719 -5.15625 L 2.535156 -5.15625 L 2.535156 -7.585938 Z M 4.511719 -7.585938 "/></g></g></g><g fill="#c6ab7c" fill-opacity="1"><g transform="translate(370.280358, 334.707617)"><g><path d="M 1.890625 0 L 2.5 -1.878906 L 5.984375 -1.878906 L 6.605469 0 L 8.414062 0 L 5.195312 -9.132812 L 3.304688 -9.132812 L 0.0820312 0 Z M 4.25 -7.253906 L 5.503906 -3.386719 L 2.992188 -3.386719 Z M 4.25 -7.253906 "/></g></g></g><g fill="#c6ab7c" fill-opacity="1"><g transform="translate(384.760769, 334.707617)"><g><path d="M 4.894531 0.167969 C 7.144531 0.167969 8.519531 -1.078125 8.773438 -2.96875 L 6.894531 -2.96875 C 6.714844 -1.890625 5.921875 -1.375 4.847656 -1.375 C 3.171875 -1.375 2.261719 -2.667969 2.261719 -4.570312 C 2.261719 -6.460938 3.171875 -7.753906 4.847656 -7.753906 C 5.921875 -7.753906 6.726562 -7.238281 6.894531 -6.269531 L 8.773438 -6.269531 C 8.519531 -8.066406 7.144531 -9.296875 4.894531 -9.296875 C 1.867188 -9.296875 0.464844 -7.097656 0.464844 -4.570312 C 0.464844 -2.046875 1.867188 0.167969 4.894531 0.167969 Z M 4.894531 0.167969 "/></g></g></g><g fill="#c6ab7c" fill-opacity="1"><g transform="translate(399.923317, 334.707617)"><g><path d="M 2.535156 0 L 2.535156 -4.238281 L 5.839844 0 L 7.980469 0 L 4.222656 -4.726562 L 7.863281 -9.132812 L 5.757812 -9.132812 L 2.535156 -5.074219 L 2.535156 -9.132812 L 0.8125 -9.132812 L 0.8125 0 Z M 2.535156 0 "/></g></g></g><g fill="#c6ab7c" fill-opacity="1"><g transform="translate(413.925028, 334.707617)"><g><path d="M 6.90625 0 L 6.90625 -1.542969 L 2.535156 -1.542969 L 2.535156 -3.804688 L 6.449219 -3.804688 L 6.449219 -5.335938 L 2.535156 -5.335938 L 2.535156 -7.585938 L 6.90625 -7.585938 L 6.90625 -9.132812 L 0.8125 -9.132812 L 0.8125 0 Z M 6.90625 0 "/></g></g></g><g fill="#c6ab7c" fill-opacity="1"><g transform="translate(427.340347, 334.707617)"><g><path d="M 6.210938 -3.960938 C 7.097656 -4.378906 7.648438 -5.242188 7.648438 -6.4375 C 7.648438 -8.328125 6.460938 -9.132812 4.75 -9.132812 L 0.8125 -9.132812 L 0.8125 0 L 2.535156 0 L 2.535156 -3.648438 L 4.570312 -3.648438 L 6.019531 0 L 7.851562 0 Z M 4.511719 -7.585938 C 5.421875 -7.585938 5.9375 -7.15625 5.9375 -6.378906 C 5.9375 -5.578125 5.433594 -5.15625 4.511719 -5.15625 L 2.535156 -5.15625 L 2.535156 -7.585938 Z M 4.511719 -7.585938 "/></g></g></g><g fill="#c6ab7c" fill-opacity="1"><g transform="translate(441.569432, 334.707617)"><g/></g></g><g fill="#c6ab7c" fill-opacity="1"><g transform="translate(450.760282, 334.707617)"><g><path d="M 1.890625 0 L 2.5 -1.878906 L 5.984375 -1.878906 L 6.605469 0 L 8.414062 0 L 5.195312 -9.132812 L 3.304688 -9.132812 L 0.0820312 0 Z M 4.25 -7.253906 L 5.503906 -3.386719 L 2.992188 -3.386719 Z M 4.25 -7.253906 "/></g></g></g><g fill="#c6ab7c" fill-opacity="1"><g transform="translate(465.240692, 334.707617)"><g><path d="M 2.535156 0 L 2.535156 -3.648438 L 4.75 -3.648438 C 6.460938 -3.648438 7.648438 -4.679688 7.648438 -6.4375 C 7.648438 -8.328125 6.460938 -9.132812 4.75 -9.132812 L 0.8125 -9.132812 L 0.8125 0 Z M 2.535156 -7.585938 L 4.511719 -7.585938 C 5.421875 -7.585938 5.9375 -7.15625 5.9375 -6.378906 C 5.9375 -5.578125 5.433594 -5.15625 4.511719 -5.15625 L 2.535156 -5.15625 Z M 2.535156 -7.585938 "/></g></g></g><g fill="#c6ab7c" fill-opacity="1"><g transform="translate(479.19453, 334.707617)"><g><path d="M 2.535156 0 L 2.535156 -3.648438 L 4.75 -3.648438 C 6.460938 -3.648438 7.648438 -4.679688 7.648438 -6.4375 C 7.648438 -8.328125 6.460938 -9.132812 4.75 -9.132812 L 0.8125 -9.132812 L 0.8125 0 Z M 2.535156 -7.585938 L 4.511719 -7.585938 C 5.421875 -7.585938 5.9375 -7.15625 5.9375 -6.378906 C 5.9375 -5.578125 5.433594 -5.15625 4.511719 -5.15625 L 2.535156 -5.15625 Z M 2.535156 -7.585938 "/></g></g></g></svg>